<svg xmlns="http://www.w3.org/2000/svg" xmlns:xlink="http://www.w3.org/1999/xlink" viewBox="0 0 1920 1080"><defs><style>.cls-1{fill:url(#radial-gradient);}.cls-2{fill:url(#radial-gradient-2);}.cls-3{fill:url(#Dégradé_sans_nom_100);}.cls-4{fill:#fff;opacity:0.59;}.cls-5{fill:#ccb2af;}.cls-6{fill:#b98488;}.cls-7{fill:#fed9e0;}.cls-18,.cls-8{fill:#a1686d;}.cls-11,.cls-12,.cls-16,.cls-17,.cls-9{fill:#7f4e5a;}.cls-10{fill:#cf5853;}.cls-11,.cls-16{stroke:#7f4e5a;}.cls-11,.cls-16,.cls-21{stroke-miterlimit:10;}.cls-12{opacity:0.42;}.cls-13,.cls-14,.cls-15{fill:#7c352f;}.cls-14{opacity:0.82;}.cls-15{opacity:0.89;}.cls-16{stroke-width:0.5px;opacity:0.78;}.cls-17{opacity:0.27;}.cls-18{opacity:0.68;}.cls-19{fill:#56282e;}.cls-20{fill:url(#Nouvelle_nuance_de_dégradé_1_5);}.cls-21{fill:url(#Dégradé_sans_nom_96);stroke:url(#Nouvelle_nuance_de_dégradé_1_5-2);}.cls-22{fill:url(#Nouvelle_nuance_de_dégradé_1_5-3);}</style><radialGradient id="radial-gradient" cx="1006.35" cy="540" r="830.59" gradientTransform="translate(2037.9 1205.08) rotate(180) scale(1.01 1.22)" gradientUnits="userSpaceOnUse"><stop offset="0.02" stop-color="#150d2a"/><stop offset="1" stop-color="#150d2a"/></radialGradient><radialGradient id="radial-gradient-2" cx="1532.3" cy="599.11" r="481.96" gradientTransform="translate(4192.55 1709.83) rotate(180) scale(1.8 1.96)" gradientUnits="userSpaceOnUse"><stop offset="0.05" stop-color="#713962"/><stop offset="0.3" stop-color="#532850"/><stop offset="0.45" stop-color="#361b40"/><stop offset="0.52" stop-color="#200f31"/><stop offset="0.69" stop-color="#1a0e2d"/><stop offset="1" stop-color="#150d2a"/></radialGradient><linearGradient id="Dégradé_sans_nom_100" x1="1435.71" y1="196.38" x2="1435.71" y2="961.36" gradientUnits="userSpaceOnUse"><stop offset="0" stop-color="#aa90c7"/><stop offset="0.26" stop-color="#da8685"/><stop offset="0.38" stop-color="#e6a398"/><stop offset="0.51" stop-color="#fbc0af"/><stop offset="0.61" stop-color="#fcc6b9"/><stop offset="0.73" stop-color="#fdd4af"/><stop offset="0.83" stop-color="#f8bba6"/><stop offset="1" stop-color="#e6a3af"/></linearGradient><linearGradient id="Nouvelle_nuance_de_dégradé_1_5" x1="1433.02" y1="127.91" x2="1433.02" y2="219.75" gradientUnits="userSpaceOnUse"><stop offset="0" stop-color="#251335"/><stop offset="0.2" stop-color="#271233"/><stop offset="0.55" stop-color="#412649"/><stop offset="0.83" stop-color="#5a3b61"/></linearGradient><radialGradient id="Dégradé_sans_nom_96" cx="1347.31" cy="591.42" r="372.26" gradientTransform="translate(-320.04 -289.02) scale(1.3 1.41)" gradientUnits="userSpaceOnUse"><stop offset="0.37" stop-color="#58395f"/><stop offset="0.53" stop-color="#5a3b61"/><stop offset="0.67" stop-color="#412649"/><stop offset="0.77" stop-color="#271233"/><stop offset="1" stop-color="#251335"/></radialGradient><linearGradient id="Nouvelle_nuance_de_dégradé_1_5-2" x1="1115.75" y1="542.5" x2="1753.44" y2="542.5" xlink:href="#Nouvelle_nuance_de_dégradé_1_5"/><linearGradient id="Nouvelle_nuance_de_dégradé_1_5-3" x1="1433.01" y1="173.23" x2="1433.01" y2="203.29" xlink:href="#Nouvelle_nuance_de_dégradé_1_5"/></defs><g id="mur"><polygon class="cls-1" points="0.11 0 2047 0 2019.14 1097 -8.99 1097 0.11 0"/><rect id="Fond_Bien" data-name="Fond Bien" class="cls-2" x="382" width="2097" height="1071"/></g><g id="ciel"><rect class="cls-3" x="1172.66" y="196.38" width="526.09" height="764.97" rx="108.94"/><path class="cls-4" d="M1445.87,299.19a17.89,17.89,0,0,0-2.61-2.21c5.85,8.71,5.09,22-2.29,31.27s-18.85,11.45-27,5.65a19.79,19.79,0,0,0,2.17,2.74c8.14,8.45,21.4,6.91,29.61-3.44S1454,307.63,1445.87,299.19Z"/></g><g id="ailes"><path class="cls-5" d="M1179.12,706.78,1483.74,585h61.88L1232.48,933.27S1114.64,705.47,1179.12,706.78Z"/><path class="cls-6" d="M1500.91,586.25H1542L1242.59,912.16s-33-111.81-23-161.29Z"/><path class="cls-6" d="M1315.75,676.16V686s27.9-17.38,30.09-22.3S1317.9,683.67,1315.75,676.16Z"/><path class="cls-6" d="M1352.33,660.1a7.62,7.62,0,0,0,9.07-2.52"/><path class="cls-7" d="M1332.43,644.5c1.61-.45,158.9-59.48,158.9-59.48h-5.59L1332.43,644.5"/><path class="cls-8" d="M1425.49,701.86l50-51.39s-8.06,3.42-12.36,3.42c0,0,1.07,6.15-7.54,8.61l-6.45,1.23S1448.08,681,1425.49,701.86Z"/><path class="cls-6" d="M1211.4,700.4s95.75-42.82,99-42.82h7.11S1215.7,707.55,1211.4,700.4Z"/><path class="cls-6" d="M1215.5,707.75s71.12-17.21,75.92-22.73,18.27-3.44,18.27-3.44-1.18,22.91-10.15,22.91l66.78-40.76L1289.82,716l-70.66,41.18S1198,708.38,1215.5,707.75Z"/><path class="cls-9" d="M1327.43,687.84s99.14,16.54,97,25.11"/><path class="cls-9" d="M1259,728.8s119,31.18,117,35.32"/><path class="cls-10" d="M1600.86,432.52s-31.94,142.66-55.24,152.5h-59.88s87.14-140.21,91.45-140.21S1595.48,428.83,1600.86,432.52Z"/><path class="cls-10" d="M1483.61,650.47s3.89.77,9.79,2c18.52,3.85,56.89,12.16,56.89,15,0,3.69,5.38,16.33,0,18S1456,720.9,1430,707.07l31.28-33Z"/><path class="cls-10" d="M1393.57,745.52s101.85,24,101.85,30.13c0,0,9.68,13.75,0,17.33s-147.58,41.75-170.62,25.12Z"/><path class="cls-11" d="M1182.73,774.47S1381.1,655.65,1464,606.21c21.77-13,35.58-21.19,35.72-21.19"/><path class="cls-12" d="M1491.33,642.32s-63.94-15-75.65-7.26"/><path class="cls-13" d="M1465.06,777.67s21.75-2.9,23.37,0"/><path class="cls-13" d="M1367.9,777.67s76.62-4.13,76.25,0"/><path class="cls-13" d="M1518,673.57s-52.15-5.19-56.74.48"/><path class="cls-14" d="M1493.4,652.46c-.13.2-17.79,18.19-16,20.26s10.44,24.22,28.73,24.22,8.55.32,8.55.32S1431.26,716,1430,707.07l53.62-56.6Z"/><path class="cls-15" d="M1577.19,491.55s-26.9,93.47-36.8,93.47H1496.1s29.45-20.91,31.6-20.91h0S1550.29,569,1577.19,491.55Z"/><path class="cls-13" d="M1577.19,487.27s6.45-9.25,6.45-12.94,5,0,2.5,0c0,0-2.52,12.54-4.12,14.26S1577.19,487.27,1577.19,487.27Z"/><path class="cls-13" d="M1586.84,466.26c-.38-.32,2.62.54,2.4,0s3-10.38,3-12.84S1589,468,1586.84,466.26Z"/><path class="cls-13" d="M1533.08,532.14s4.3-1.23,5.38-4.92"/><path class="cls-16" d="M1492.73,591.78s-32.72,15.58-34.11,17.63,37.48-22.29,37.48-22.29,40.34-1,40.54,0-21.32,28-25.62,28h-6.11s-8.87-7.14-7.3-8.49,10.18-.12,10.18-.12S1496,591.78,1492.73,591.78Z"/><path class="cls-8" d="M1434.1,630.1s24.74-19.25,28-19.25h4.16s-14.92,8.61-13.84,12.29,15,9.69,15,9.69S1434.1,632.13,1434.1,630.1Z"/><path class="cls-9" d="M1477.25,637.57c-4.21-.69,9.72,3.77,9.72,3.77s12.75-14.18,12.75-15.45C1499.72,623.14,1490.28,639.7,1477.25,637.57Z"/><path class="cls-9" d="M1450.24,663.73s-8.83,14.95-12,16.7-40.77,6.67-41.85,5.44,15.06,23.36,30.13,16S1450.24,663.73,1450.24,663.73Z"/><path class="cls-9" d="M1402.9,696.94c1.07-.05-16.14-4.92-15.06-11.07l-17.74-2.22S1376,698.17,1402.9,696.94Z"/><path class="cls-8" d="M1450.24,659.28v-3.54s-20.38-10.86-25.79-11.27c0,0,46.61,3.8,46.42,6C1470.87,650.47,1450.24,663.44,1450.24,659.28Z"/><path class="cls-9" d="M1391.06,708s29,3.68,25.82,7.37-15.74,15.76-15.74,15.76-5.5-.49-7.25,1.1-14.07,15.69-14.07,15.69-27.49-1.8-27.49-4.26l25.82-3.69S1399.67,708,1391.06,708Z"/><path class="cls-9" d="M1375.94,759.22l21.58-22.33-17.7,14.81s-31.86-4.34-34-6.18l-10.17.94S1372.65,761.23,1375.94,759.22Z"/><path class="cls-9" d="M1315.75,740s21.34-2.46,20.89,0S1315.75,742.44,1315.75,740Z"/><path class="cls-8" d="M1299.62,714.15c1-.55,28-22.13,32.27-20.9s53.29,7.38,50.31,14.76c0,0,2.51,5-1.31,4.94s-23.45-4.23-28.56-6.17c-9.68-3.69-15.88,1.23-18.29,1.23,0,0-2.73-2.46-10,0s-10.47,8.6-15.85,8.6S1297.46,715.38,1299.62,714.15Z"/><path class="cls-17" d="M1299,834.33c-1.26,1.51.59,3.75,2,2.39,26.28-25.55,65.38-64.05,65.38-66.93,0-4.33-3.57-6.84-6.22-6.3s-42.62-12.18-48.19-12.32a1.32,1.32,0,0,0-.91.35c-1.11,1-4.13,4.73,3.38,9.61l2,1.33.23.14c1.47.95.52,3.49-1.09,3l-2.94-1c-1.24-.41-2.3,1.09-1.68,2.37,3.63,7.53,12.43,24.8,17.37,25.93C1332,793.72,1314.4,815.85,1299,834.33Z"/><path class="cls-18" d="M1305,821.15s-63.47-34.43-61.32-41.81,16.38-4.87,16.38-4.87,41.72,28.23,47.1,25.77,2.8-2.64,2.8-2.64-10.33-12.11-15.71-12.11-4.31-3.69-4.31-3.69,6.46-2.46,10.76,0,26,10,24.85,12.35S1309.3,821.15,1305,821.15Z"/><path class="cls-8" d="M1269.49,808.85s20.44,17.22,28,14.76,7.53,11.07-6.45,6.15S1270.57,811.31,1269.49,808.85Z"/><path class="cls-13" d="M1393.89,796.48s6.58-2.53,7.25,0"/><path class="cls-13" d="M1406,750.26s-28,23.22-24.74,26.76h0s-4.21,18.31-2.06,20.76c0,0,9.2-2.45,9.44,0,0,0-10.52,2.46-8.37,4.92,1.81,2.07,38.37,5.07,50.16,6,.42,0,5.12.08,4.71.16-18.29,3.69-123.72,28.29-109.63,8.47,4-5.68,65.52-68.73,65.52-68.73S1405.93,747,1406,750.26Z"/><path class="cls-19" d="M1366.14,774.47c-.9,2.41-28.48,37.64-24.91,38.47s12.3-8.29,12.3-8.29,1.08,13.61-1.67,13.83-26.32-1.16-26.32-1.16l40.6-42.85"/><path class="cls-19" d="M1467.62,667.35s-25.37,29.13-19.77,33,37.89,4.67,37.89,4.67-58.79,7.22-55.75,2,37.63-39.72,37.63-39.72"/><path class="cls-13" d="M1512.64,693.25c-1.06.22,34.42-8.61,35.5-11.07a3.71,3.71,0,0,1-4.84-1.75,7.61,7.61,0,0,1,0-6.38S1541.68,687.1,1512.64,693.25Z"/></g><g id="hublot"><path class="cls-20" d="M1206,219.75h454s-35.3-64.45-86.26-78.08c-100.67-26.91-269-6-269-6s-60,9.33-98.77,84.13"/><path class="cls-21" d="M1522.49,995H1346.7c-127.07,0-230.45-111.61-230.45-248.79V338.79C1116.25,201.61,1219.63,90,1346.7,90h175.79c127.07,0,230.45,111.61,230.45,248.79V746.21C1752.94,883.39,1649.56,995,1522.49,995ZM1346.7,151.48c-95.67,0-173.5,84-173.5,187.31V746.21c0,103.28,77.83,187.31,173.5,187.31h175.79c95.67,0,173.5-84,173.5-187.31V338.79c0-103.28-77.83-187.31-173.5-187.31Z"/><path class="cls-22" d="M1255.69,188.3s135,33.73,354.64,0C1610.33,188.3,1452.76,154.39,1255.69,188.3Z"/></g></svg>