<svg xmlns="http://www.w3.org/2000/svg" xmlns:xlink="http://www.w3.org/1999/xlink" viewBox="0 0 1920 1080"><defs><style>.cls-1{stroke:#000;stroke-miterlimit:10;fill:url(#Dégradé_sans_nom_16);}.cls-2,.cls-3,.cls-4,.cls-5,.cls-7{opacity:0.41;}.cls-2{fill:url(#Dégradé_sans_nom_8);}.cls-3{fill:url(#Dégradé_sans_nom_9);}.cls-4{fill:url(#Dégradé_sans_nom_9-2);}.cls-5{fill:url(#Dégradé_sans_nom_8-2);}.cls-6{opacity:0.65;fill:url(#Dégradé_sans_nom_9-3);}.cls-7{fill:url(#Dégradé_sans_nom_9-4);}</style><linearGradient id="Dégradé_sans_nom_16" x1="960" y1="0.5" x2="960" y2="1197.5" gradientUnits="userSpaceOnUse"><stop offset="0.02" stop-color="#2a543a"/><stop offset="0.53" stop-color="#38757c"/><stop offset="1" stop-color="#d4b990"/></linearGradient><linearGradient id="Dégradé_sans_nom_8" x1="219" y1="473.37" x2="219" y2="607" gradientUnits="userSpaceOnUse"><stop offset="0" stop-color="#fff"/><stop offset="1" stop-color="#babdab" stop-opacity="0.6"/></linearGradient><linearGradient id="Dégradé_sans_nom_9" x1="701" y1="937.8" x2="701" y2="1022.02" gradientUnits="userSpaceOnUse"><stop offset="0" stop-color="#fff"/><stop offset="1" stop-color="#a6b7ae" stop-opacity="0.6"/></linearGradient><linearGradient id="Dégradé_sans_nom_9-2" x1="470.5" y1="887.42" x2="470.5" y2="1006" xlink:href="#Dégradé_sans_nom_9"/><linearGradient id="Dégradé_sans_nom_8-2" x1="758.99" y1="681" x2="758.99" y2="815" gradientTransform="matrix(-1, 0, 0, 1, 2522.49, 0)" xlink:href="#Dégradé_sans_nom_8"/><linearGradient id="Dégradé_sans_nom_9-3" x1="1546.02" y1="233.8" x2="1546.02" y2="336.76" gradientTransform="matrix(-1, -0.02, -0.02, 1, 2955.98, 31.23)" xlink:href="#Dégradé_sans_nom_9"/><linearGradient id="Dégradé_sans_nom_9-4" x1="1331.72" y1="148.36" x2="1331.72" y2="293.48" gradientTransform="matrix(-1, 0.03, 0.03, 1, 2941.88, -47.05)" xlink:href="#Dégradé_sans_nom_9"/></defs><g id="Calque_2" data-name="Calque 2"><rect class="cls-1" x="-65.5" y="0.5" width="2051" height="1197"/></g><g id="Calque_3" data-name="Calque 3"><path class="cls-2" d="M0,529.39s8.61-9.29,18.85,0c0,0,43.48-111.93,153.19-19.36,0,0,93.09-52.9,131.32,46.28,0,0,119.68-48.49,134.64,50.69H0Z"/><path class="cls-3" d="M564,1017.09s3.42-46.68,36-39c0,0,27.4-79.45,94.19-15.31,0,0,53.09-36.18,71.92,37.83,0,0,53.09-32.89,71.93,21.38Z"/><path class="cls-4" d="M301.42,1006s-8.18-85.41,47.86-77.35c0,0,23.36-82.18,107.42-14.5,0,0,70.14-44.46,93.44,32.56,0,0,84-40.62,89.86,46.4Z"/><path class="cls-5" d="M1920,737.17s-6.15-9.31-13.47,0c0,0-31.07-112.23-109.47-19.41,0,0-66.52-53-93.84,46.41,0,0-85.53-48.62-96.22,50.83h313Z"/><path class="cls-6" d="M1559.35,335.38s-2.86-57.31-40-48.63c0,0-29.35-98.08-106.58-21,0,0-59.47-45.63-82.49,44.68,0,0-59.54-41.6-82.12,24.5Z"/><path class="cls-7" d="M1812.85,285.33s6-105-57.33-92.79c0,0-29.7-99.75-122.45-13.26,0,0-81.33-51.54-104.78,43.84,0,0-96.91-46.25-100.15,60.65Z"/></g></svg>