<svg xmlns="http://www.w3.org/2000/svg" xmlns:xlink="http://www.w3.org/1999/xlink" viewBox="0 0 1920 1080"><defs><style>.cls-1{fill:url(#Dégradé_sans_nom_51);}.cls-2,.cls-3,.cls-6,.cls-7{opacity:0.44;}.cls-2{fill:url(#Dégradé_sans_nom_182);}.cls-3{fill:url(#Dégradé_sans_nom_212);}.cls-4{opacity:0.4;fill:url(#Dégradé_sans_nom_226);}.cls-5{fill:#150d2a;}.cls-6{fill:#431a38;}.cls-7{fill:#772a50;}.cls-8{fill:#f5548f;opacity:0.58;}.cls-9{opacity:0.68;fill:url(#Dégradé_sans_nom_70);}.cls-10{fill:#611107;opacity:0.61;}.cls-11{fill:#cf3b71;}.cls-12{opacity:0.78;fill:url(#Dégradé_sans_nom_119);}.cls-13{fill:url(#Dégradé_sans_nom_152);}.cls-14{fill:#b23161;}.cls-15{fill:#fff;opacity:0.08;}</style><linearGradient id="Dégradé_sans_nom_51" x1="986.77" y1="-13.15" x2="986.77" y2="1089.19" gradientUnits="userSpaceOnUse"><stop offset="0.12" stop-color="#191843"/><stop offset="0.33" stop-color="#291248"/><stop offset="0.41" stop-color="#2a144a"/><stop offset="0.48" stop-color="#2e1c51"/><stop offset="0.65" stop-color="#3a2357"/><stop offset="0.75" stop-color="#381a4f"/><stop offset="0.97" stop-color="#451e52"/></linearGradient><radialGradient id="Dégradé_sans_nom_182" cx="964.58" cy="717.08" r="626.5" gradientTransform="translate(-687.77 -313.02) scale(1.71 1.67)" gradientUnits="userSpaceOnUse"><stop offset="0" stop-color="#2c1a4a"/><stop offset="0.15" stop-color="#2c1748"/><stop offset="0.36" stop-color="#2c1748"/><stop offset="0.79" stop-color="#2c1647"/><stop offset="0.9" stop-color="#2c1646"/><stop offset="1" stop-color="#441a4f"/></radialGradient><radialGradient id="Dégradé_sans_nom_212" cx="915.39" cy="848.2" r="570.5" gradientTransform="translate(-495.81 -318.45) scale(1.6 1.43)" gradientUnits="userSpaceOnUse"><stop offset="0" stop-color="#301e52"/><stop offset="0.03" stop-color="#3b255a"/><stop offset="0.36" stop-color="#3a2358"/><stop offset="0.54" stop-color="#381e52"/><stop offset="0.72" stop-color="#381e51"/><stop offset="1" stop-color="#361a4e"/></radialGradient><radialGradient id="Dégradé_sans_nom_226" cx="962.89" cy="809.69" r="372.1" gradientTransform="translate(-1011.1 -594.5) scale(2.06 1.97)" gradientUnits="userSpaceOnUse"><stop offset="0.07" stop-color="#4d4377"/><stop offset="0.24" stop-color="#4a3468"/><stop offset="0.36" stop-color="#48295d"/><stop offset="0.72" stop-color="#452256"/><stop offset="1" stop-color="#451d50"/></radialGradient><linearGradient id="Dégradé_sans_nom_70" x1="974.94" y1="509.91" x2="974.94" y2="908.08" gradientUnits="userSpaceOnUse"><stop offset="0.12" stop-color="#bb3270"/><stop offset="0.33" stop-color="#963975"/><stop offset="0.52" stop-color="#8b3e7b"/><stop offset="0.71" stop-color="#873f7c"/><stop offset="0.94" stop-color="#85427f"/></linearGradient><linearGradient id="Dégradé_sans_nom_119" x1="974.89" y1="415.9" x2="974.89" y2="284.39" gradientUnits="userSpaceOnUse"><stop offset="0.05" stop-color="#852650"/><stop offset="0.21" stop-color="#92305b"/><stop offset="0.33" stop-color="#a7436e"/><stop offset="0.52" stop-color="#b6507c"/><stop offset="0.62" stop-color="#c25e89"/><stop offset="0.74" stop-color="#cb6692"/><stop offset="0.78" stop-color="#d16b97"/></linearGradient><linearGradient id="Dégradé_sans_nom_152" x1="974.97" y1="451.34" x2="974.97" y2="407.6" gradientUnits="userSpaceOnUse"><stop offset="0.05" stop-color="#f881ac"/><stop offset="0.17" stop-color="#f880ab"/><stop offset="0.3" stop-color="#f875a5"/><stop offset="0.48" stop-color="#f86a9d"/><stop offset="0.68" stop-color="#f75d95"/><stop offset="0.84" stop-color="#e64f86"/><stop offset="1" stop-color="#d03d73"/></linearGradient></defs><g id="Ciel"><path class="cls-1" d="M-38.81-5.55s2057.16-17.1,2051.16,0,0,1094.74,0,1094.74H-38.81Z"/></g><g id="halo"><ellipse class="cls-2" cx="965.32" cy="882.5" rx="1073.68" ry="1044.5"/><ellipse class="cls-3" cx="964.58" cy="898.4" rx="910.15" ry="818.46"/><ellipse class="cls-4" cx="975.68" cy="1000.71" rx="785.1" ry="716.15"/></g><g id="sol"><path class="cls-5" d="M-38.81,881.19s258.24-82.16,397.36-69,244.18,26.38,315.22,46.17c0,0,207.19-31.33,285.63-31.33,0,0,435.09-39.57,701.48,82.44,0,0,238.27-80.79,370-70.9l-48.1,284.4H-38.81Z"/></g><g id="sapin"><path class="cls-5" d="M286.77,855.54l-3-6.91h9.3V835.1h6.65l-8-6.22,12.74-3.75L301,818.72h-6.8l5.92-1.89-1.48-4.15,3-1.38v-1.38l5.92-1.39-3-2.76s4.44-1.71,3-1.55a4.46,4.46,0,0,1-3-1.22s3.56-1.37,3.26-1.37-3.26-4.16-3.26-4.16l4.44-2.76-1.48-1.38h4.23l-1.27-2.77,3-1.38a17.07,17.07,0,0,0,3-4.15,4.17,4.17,0,0,0,1.48,2.77l3,2.76,3,1.38a4.77,4.77,0,0,0-1.48,2.77c0,1.38,3,2.76,3,2.76l-3,2.77,4.44,1.38L325.25,803l3,1.39-1.48,1.38,4.44,4.15-3,2.76,3,1.05-1.48,1.72,3,1.38-1.12,1.89,3,1.57-3.32,3.45,3.32-.67v2.07l5.56,1.37s-4.44,0-3,1.38a4.85,4.85,0,0,0,3,1.4L334.13,832h4.44l-3,2.76-1.48,1.39,3,1.38-3,2.76h3l4.44,2.77-1.48,2.76,4.44,1.39L343,844.48l3-1.38-3-1.38,4.44-2.77L346,836.19l7.4-1.39-1.48-1.38h7.4l-4.44-5.53h3l-4.44-2.76,3-1.39-3.33-5h2.77l-2.4-1.89h8.88l-3-2.77,5.92-1.38-5.92-2.76,3-1.39-3-2.76h1.48L359.29,803l5.92-.85-3-3.29-1.48-1.39,5.92-1.38-1.48-1.38,5.92-1.38-3-2.77,1.48-2.76-4.44-4.15h4.08l-2.6-2.77,4.44-.69-1.48-3.45H378l-3.9-2.77,1.48-1.38-3.32-2.45,3.32-1.7v-5.53h4.27l-1.31-2.76,4.44-1.39s3-2.76,3-4.14c0-2.77,0,2.76,1.48,4.14a2.14,2.14,0,0,0,3,0v3.1l3-.33-1.48,2.76,3,1.39-2,4.46,3.5,2.45-1.48,5.53,5.91,1.38-3,2.77,3,2.41s-4.43,1.73-3,1.73h4.43v2.94l1.48,1.21v3.11l4.44,1-1.48,2.76,1.48.7-3,4.83h3l-3,5.52,3,.36-1.48,2.41h5.92l-1.48,1.38,3,1.38-3,4.15,5.92,1.38-3,2.77,1.48,2.77L414,826.51l-1.48,2.76,1.48,1.39-3,1.38v2.76h3l-1.48,2.77,3,1.38,3-1.38v-2.74l7.4,0L424.4,832l1.48-1-1.48-4.51,1.48-1-3-3.13,5.92-1.38-4.44-6.92,4.44-.16-1.48-2.6,7.4,1.38-3-5.53.61-2.21L428.84,803l4.44-1.38-3-4.15,4.44.87-1.48-3.63,5.92,1.38-1.48-1.38,3-1.38-4.44-2.77,1.48-1.38-1.48-1.38,3-1.39-1.48-5.53,3-.87-1.48-1.89,4.44,1.38,3-4.15h-3l3-2.76s0-2.77,1.48-4.15,1.48-1.38,3,1.38l3,5.53h-1.48l4.44,1.39-3,1.38,3,.86-1.48,1.9,1.48,1.21L455.48,785l1.48.52-1.48,2.25h3l-3,2.76h4.44l-1.48,5.53h3v1.73l1.48,1-1.48,5.53,4,.55-1,3.59h3v4l5.92,1.54-4.44,2.77,3,1.38-4.44,4.15h3l-3,4.15h3v1.38l4.44,1.38L473.24,832h4.44l-3,5.53,5.92,1.38-4.44,6.91h1.48l-1.48,2.77h7.4l-3-2.77h1.48l-1.48-2.76,3,0-3-1.41h1.48V839H488l-1.48-2.76h3L488,833.42h3l-3-4.15h1.48l-3-4.14L491,825l-3-2.61h1.48L488,818.21h4.44l-3-1.38,5.92-1.38L494,811.3h3l-3-4.15-1.21-2.21h4.17l-3-3.32h4.44l-1.48-2.76h5.92l-3-4.15,1.48-1.38-1.48-1.39,3-.51-3-3.63,1.48-1.39v-2.76h3l-1.48-2.77h3l-1.48-2.76,4.44-1.38s3.78-3.68,4.44-5.53c1.48-4.15,1.48,6.91,3,6.91a5.29,5.29,0,0,1,3,1.38h0l3,1.38-3,1.39,1.48,1.38,3,1.38-3,1.38,3,.87-1.48,1.9,1.48,1.73-1.48,2.42h3l-1.48,2.76h3l-3,2.77,3-.17,1.48,1.55,1.48,1.38L525,803l1.21,1.94h2.22l1,3.26s1.48-1.05,1.48.33a4.73,4.73,0,0,1-1.48,2.77l3,1.38L531,814.06l4.44,2.77,1.48,1.38s-3,0-3,1.38v5.54l-3,1.38,1.48,2.76,1.48,1.39,4.44,1.38-1.48,2.76,4.44,1.39-3,2.76,5.92,2.77-3,4.14,1.48,1.39-3,2.76,3,2.77L540,855.54S289.73,880.43,286.77,855.54Z"/><path class="cls-5" d="M628.63,845.86l-3-6.91h3v-4.9h3l-1.55-3.39-1.44-4.57h5v-3.37l2.4-4.51,1.48,4.15h3L639,825.13h3l-1.48,2.76h3L641.17,832h3.93L642,836.19h3.15v9.66S625.67,854.16,628.63,845.86Z"/><path class="cls-5" d="M656.42,862.86c-3.28-1.05-3.53-5.65-3.53-5.65l-3.54-8.48h7.07l-3.53-10.32,3.53-5.64-3.53-5.63h9.82L656,821.5l6.68-2.51v-9.84l7.85-2.82L667,795h7.43l-.36-8.48,10.6-5.66v10.55L695.3,795l-3.53,5.65,7.07,2.83-3.54,11.31h10.61l-7.07,14.13,7.07-.55v8.14l7.07.89v8.51s14.14,5.63,7.07,2.8c0,0-3.54,5.65-7.07,8.48S674.1,868.52,656.42,862.86Z"/><path class="cls-5" d="M1367.11,840.33l-4.43-5.53h4.43l-2.22-4.13h4.66l-1-6.93h3.25l-1.77-5.53,5.92-6.91,1.48,5.53h4.44l-1.48,6.91h3l-1.48,4.15h3v6.76l3,.15v7.82S1367.11,845.86,1367.11,840.33Z"/><path class="cls-5" d="M1568.38,879l-1.48-6.91h4.33l-4.33-3.78h4.33v-4.29l4.55-.22v-3.15l4.44.38V857h9.38l-6.42-4.23V850l-4.93-3.41,3.45-2.12-3.45-5.23,4.93-.3-1.48-2.76,7.9,1.52-2-4.29,4.44,1.38v-4.44l-5.92-3.85h-3.76l3.76-2.77h5.92l-3-4.15-5.92-1.38,4.44-2.76,4.44-1.33,3-4.2,5.92-1.39-3-4.14,3-2.52a12,12,0,0,1-3.14,0,28.68,28.68,0,0,1-4.26-1.63l7.4-2.35-3-1.8-4.44-2.76,7.4-1.57-3-1.2h12.61l-2.25-2.76-1.48-5.53-4.44-2.77h4.89l-3.41-4.15,3-2.76h3.73v-3.5l3.67-.65V764.8l3-.51v-5.62l4.44-2.67s3-5.53,3-4.15-1.48,9.68-1.48,9.68l3,2.76v3.27l5.92.88-4.44,4.15,4.44-.13-4.44,4.28,4.44,1.54-4.44,4,3,2.76,5.92-1.38-3,4.15,3,.9-3,1.86,3,1.81s-4.44,3.72-3,3.72,1.48,2.77,1.48,2.77h5.92l-3,4.14,3-.52,1.48,4.67-3,2.77h8.88l-1.48,4.14,3.12,1.28-4.6,4.25,4.6.36-10.52,3.79,5.92,6.92,5.92,1.38h8.88s-7.4,4.15-5.92,4.15a15.56,15.56,0,0,0,4.44-1.39s-8.88,2.77-7.4,4.15l3,2.77,5.92-1.55-4.44,4.31,4.44.59-5.92,6.32h4.44l-4.44,4.15,4.44,1.38-3,4.15,11.84-2.76-1.48,4.14,5.92-1.38a54.43,54.43,0,0,1-5.92,6.91c-3,2.77,5.92-.24,5.92-.24s-1.48,11.3-5.92,14.07S1595,937.11,1568.38,879Z"/><path class="cls-5" d="M1862.54,868.94l-1.48-6.92h4.33l-4.33-3.78h4.33V854l4.55-.22v-3.15l4.44.38v-4.05h9.38l-6.42-4.24V839.9l-4.93-3.41,3.45-2.12-3.45-5.23,4.93-.3-1.48-2.76,7.9,1.53-2-4.3,4.44,1.38v-4.44l-5.92-3.85h-3.76l3.76-2.77h5.92l-3-4.14-5.92-1.39,4.44-2.76,4.44-1.32,3-4.21,5.92-1.38-3-4.15,3-2.52a12,12,0,0,1-3.14,0,28.68,28.68,0,0,1-4.26-1.63l7.4-2.35-3-1.8-4.44-2.76,7.4-1.57-3-1.2h12.6l-2.24-2.76-1.48-5.53-4.44-2.77h4.89l-3.41-4.14,3-2.77h3.72V759l3.68-.65v-3.64l3-.5v-5.62l4.44-2.68s3-5.53,3-4.15-1.48,9.68-1.48,9.68l3,2.77v3.26l5.92.88-4.44,4.15,4.44-.13-4.44,4.28,4.44,1.54-4.44,4,3,2.76,5.92-1.38-3,4.15,3,.9-3,1.86,3,1.82s-4.44,3.71-3,3.71,1.48,2.77,1.48,2.77h5.92l-3,4.15,3-.53,1.48,4.67-3,2.77h8.88L1941,804l3.12,1.27-4.6,4.26,4.6.35-10.52,3.79,5.92,6.92,5.92,1.38h8.88s-7.4,4.15-5.92,4.15a15.56,15.56,0,0,0,4.44-1.39s-8.88,2.77-7.4,4.15l3,2.77,5.92-1.55-4.44,4.31,4.44.59-5.92,6.33h4.44l-4.44,4.14,4.44,1.39-3,4.14,11.84-2.76-1.48,4.15,5.92-1.39a55,55,0,0,1-5.92,6.92c-3,2.76,5.92-.25,5.92-.25s-1.48,11.31-5.92,14.07S1889.18,927,1862.54,868.94Z"/><path class="cls-5" d="M1791.51,849.58l-1.48-6.91h4.33l-4.33-3.78h4.33V834.6l4.55-.23v-3.14l4.44.38v-4.06h9.37l-6.41-4.24v-2.76l-4.94-3.41,3.46-2.12-3.46-5.24,4.94-.29-1.48-2.77,7.89,1.53-2-4.29,4.44,1.38V800.9l-5.92-3.86h-3.76l3.76-2.76h5.92l-3-4.15-5.92-1.38,4.44-2.77,4.44-1.32,3-4.21,5.92-1.38-3-4.15,3-2.51a12.54,12.54,0,0,1-3.15,0,28.9,28.9,0,0,1-4.25-1.63l7.4-2.36-3-1.79-4.44-2.77,7.4-1.56-3-1.2h12.6l-2.24-2.77L1830,752.8l-4.44-2.76h4.88l-3.4-4.15,3-2.76h3.72v-3.5l3.67-.65v-3.64l3-.51v-5.62l4.44-2.67s3-5.53,3-4.15-1.48,9.68-1.48,9.68l3,2.76v3.26l5.92.89-4.44,4.15,4.44-.13-4.44,4.27,4.44,1.55-4.44,4,3,2.77,5.92-1.38-3,4.14,3,.9-3,1.87,3,1.81s-4.44,3.72-3,3.72,1.48,2.76,1.48,2.76H1864l-3,4.15,3-.52,1.48,4.67-3,2.76h8.88l-1.48,4.15,3.12,1.27-4.6,4.26,4.6.35-10.52,3.8,5.92,6.91,5.92,1.38h8.88s-7.4,4.15-5.92,4.15a15.64,15.64,0,0,0,4.44-1.38s-8.88,2.76-7.4,4.15l3,2.76,5.92-1.55-4.44,4.32,4.44.58-5.92,6.33h4.44l-4.44,4.15,4.44,1.38-3,4.15,11.84-2.77-1.48,4.15,5.92-1.38a54.43,54.43,0,0,1-5.92,6.91c-3,2.77,5.92-.25,5.92-.25s-1.48,11.31-5.92,14.08S1818.15,907.65,1791.51,849.58Z"/><path class="cls-5" d="M-122.77,873.08l-3-6.91h9.29V852.64h6.65l-8-6.21,12.75-3.76-3.57-6.41h-6.79l5.92-1.89-1.48-4.14,3-1.39v-1.38l5.92-1.38-3-2.77s4.44-1.71,3-1.55a4.47,4.47,0,0,1-3-1.21,33,33,0,0,0,3.26-1.38c-.3,0-3.26-4.15-3.26-4.15l4.44-2.77-1.48-1.38h4.23l-1.27-2.77,3-1.38a17.07,17.07,0,0,0,3-4.15,4.16,4.16,0,0,0,1.48,2.77l3,2.76,3,1.39a4.73,4.73,0,0,0-1.48,2.76c0,1.38,3,2.77,3,2.77l-3,2.76,4.44,1.38-1.48,1.39,3,1.38-1.48,1.38,4.44,4.15-3,2.77,3,1L-79.86,833l3,1.38L-78,836.26l3,1.57-3.32,3.46,3.32-.68v2.08l5.56,1.36s-4.44,0-3,1.38a4.83,4.83,0,0,0,3,1.41l-5.92,2.74H-71l-3,2.77-1.48,1.38,3,1.38-3,2.77h3l4.44,2.76-1.48,2.77,4.44,1.38L-66.54,862l3-1.38-3-1.38,4.44-2.77-1.48-2.76,7.4-1.38L-57.66,851h7.4l-4.44-5.53h3l-4.44-2.76,3-1.38-3.33-5h2.78l-2.41-1.89h8.88l-3-2.76,5.92-1.38-5.92-2.77,3-1.38-3-2.77h1.48l-1.48-2.76,5.92-.86-3-3.29L-48.78,815l5.92-1.39-1.48-1.38,5.92-1.38-3-2.77,1.48-2.76-4.44-4.15h4.08l-2.6-2.76,4.44-.7-1.48-3.45h8.34l-3.9-2.77,1.48-1.38-3.32-2.45L-34,786v-5.53h4.27L-31,777.69l4.44-1.38s3-2.77,3-4.15c0-2.77,0,2.76,1.48,4.15a2.15,2.15,0,0,0,3,0v3.09l3-.33-1.48,2.77,3,1.38-2,4.46,3.49,2.45-1.48,5.53L-8.82,797l-3,2.77,3,2.41s-4.44,1.74-3,1.74h4.44v2.93l1.48,1.21v3.12l4.44,1L-2.9,815l1.48.69-3,4.84h3l-3,5.53,3,.35-1.48,2.41H3l-1.48,1.39,3,1.38-3,4.15,5.92,1.38-3,2.76L6,842.67,4.5,844.05,3,846.82,4.5,848.2l-3,1.38v2.77h3L3,855.11l3,1.38,3-1.38v-2.74l7.4,0-1.48-2.77,1.48-1-1.48-4.52,1.48-1-3-3.13,5.92-1.38-4.44-6.91,4.44-.16-1.48-2.61,7.4,1.39-3-5.54.6-2.21-3.56-1.93,4.44-1.39-3-4.14,4.44.86-1.48-3.63,5.92,1.38-1.48-1.38,3-1.38L26.7,808.1l1.48-1.38-1.48-1.38,3-1.38-1.48-5.53,3-.87-1.48-1.9L34.1,797l3-4.14h-3l3-2.77s0-2.76,1.48-4.15,1.48-1.38,3,1.39l3,5.53H43l4.44,1.38-3,1.38,3,.86-1.48,1.91,1.48,1.2-1.48,2.94,1.48.52-1.48,2.25h3l-3,2.76h4.44l-1.48,5.53h3v1.74l1.48,1-1.48,5.53,4,.55-1,3.6h3v4l5.92,1.55-4.44,2.76,3,1.39-4.44,4.14h3l-3,4.15h3v1.38l4.44,1.39-1.48,2.76h4.44l-3,5.53,5.92,1.38-4.44,6.92h1.48l-1.48,2.76h7.4l-3-2.76h1.48l-1.48-2.77,3,0-3-1.41h1.48v-2.77H78.5L77,853.73h3L78.5,851h3l-3-4.14H80l-3-4.15,4.44-.16-3-2.61H80l-1.48-4.14h4.44l-3-1.39L85.9,833l-1.48-4.15h3l-3-4.15-1.22-2.21h4.18l-3-3.32h4.44l-1.48-2.76H93.3l-3-4.15,1.48-1.38-1.48-1.38,3-.52-3-3.63L91.82,804v-2.77h3l-1.47-2.76h3l-1.48-2.77,4.44-1.38s3.78-3.68,4.44-5.53c1.48-4.15,1.48,6.91,3,6.91a5.29,5.29,0,0,1,3,1.38h0l3,1.39-3,1.38,1.48,1.38,3,1.38-3,1.39,3,.86-1.48,1.9,1.48,1.73-1.48,2.42h3L114,813.63h3l-3,2.77,3-.17,1.48,1.55,1.48,1.38-4.44,1.39,1.22,1.93h2.22l1,3.26s1.48-1,1.48.34a4.73,4.73,0,0,1-1.48,2.76l3,1.39-1.48,1.38,4.44,2.76,1.48,1.39s-3,0-3,1.38v5.53l-3,1.38,1.48,2.77,1.48,1.38,4.44,1.38-1.48,2.77,4.44,1.38-3,2.76,5.92,2.77-3,4.15,1.48,1.38-3,2.76,3,2.77-2.85,2.76S-119.81,898-122.77,873.08Z"/><path class="cls-5" d="M1273.91,830.74c-2.72-1-2.93-5.35-2.93-5.35l-2.94-8h5.87l-2.93-9.76,2.93-5.33L1271,797h8.15l-5.54-5.33,5.54-2.37V780l6.52-2.67-2.93-10.69h6.17l-.3-8,8.8-5.35v10l8.8,3.4-2.93,5.34s11.74,5.35,5.87,2.67l-2.94,10.7H1315l-5.87,13.36,5.87-.52v7.7l5.87.84v8s11.74,5.32,5.87,2.65c0,0-2.94,5.34-5.87,8S1288.59,836.08,1273.91,830.74Z"/><path class="cls-5" d="M1674.94,887.34c-1.48-1.38-8.88-5.53-8.88-5.53H1672l-1.48-4.58,4.44-1.53-3-4.29,5.92-.66-3-2.77h8.45l-7-5.53h4.35l-6-10h8.67l-4-3.79h7l-2.52-4.15h6.78l-2.34-4.15-3-6.91h5.3l-2.34-2.76-4.44-4.15H1689l-.7-2.77h9.23l-6.27-4.15h6.27l-3.31-2.76-4.44-1.38,5.92-1.39-4.44-2.76h4.3l-1.34-6.91h5l-3.47-4.15h8.39l-1-4.15-4.44-2.76h3.79l1.64-4.33-2.47-4H1706v-4.3l3,.15v-5h2.94l3-4.62,3,2.76,1.48-5.53,1.48,9.68,4.44-1.38-1.48,4.14s4.44-1.38,4.44,0-1.48,5.53-1.48,5.53,3-1.38,3,0-3,9.68-3,9.68h7.4l-3,4.15,3,1.32-1.48,2.83,3,1.38-1.48,6.91h4.44l-1.48,4.15,3,1.38-1.48,4.15s7.4-1.38,7.4,0-2.25,5.53-2.25,5.53H1747l-4,5.53,4-.3-5.47,4.45,3,1.38h4.44l4.43-1.54-3,5.69,3,.44-3,5.09,4.44-1.38-4.44,5.53s8.88,2.76,10.36,1.38-7.4,5.53-5.92,5.53a45.59,45.59,0,0,0,6.09-1.14l-6.09,5.29,10.36-1.39-11.84,7.13,4.44-.21,3,4.14s-13.31.69-7.4,3.11,7.4,2.42,7.4,2.42h10.36l-10.36,5.53-7.4,1.55,5.45,1.22,7.87-2.77-5.92,5.53-4.44,4.15-7.39,5.53-19.24,4.15s3.14,14.31-27.29,2.31S1674.94,887.34,1674.94,887.34Z"/></g><g id="lumiere"><path class="cls-6" d="M551.44,902.88s26.1-49.72,389.37-58.68c460.68-11.37,460.6,59.5,460.6,59.5s32.37,68-424.49,69.46C492.91,974.75,551.44,902.88,551.44,902.88Z"/><path class="cls-7" d="M674.7,898.15s19.3-34.6,281.65-37.84c332.7-4.11,332,45.52,332,45.52s22.74,47.86-307.11,45.08C631.78,948,674.7,898.15,674.7,898.15Z"/><path class="cls-8" d="M784.84,899.32S796.37,876,959,870.83c206.25-6.53,206.44,26.65,206.44,26.65s14.7,31.72-189.86,33.62C758.85,933.12,784.84,899.32,784.84,899.32Z"/><path class="cls-9" d="M889.83,515.38,784.29,898.76a7.43,7.43,0,0,0,7.28,9.32H1158.3a7.42,7.42,0,0,0,7.29-9.27L1063,515.43a7.53,7.53,0,0,0-7.3-5.52H897.11A7.52,7.52,0,0,0,889.83,515.38Z"/></g><g id="silhouette"><path class="cls-10" d="M985.29,667.52s-1.48-29-4.44-31.8c0,0,3-2.77,3-4.15s-4.44-4.15-4.44-4.15,5.92-26.26,5.92-29-1.48-9.68-1.48-11.06c0,0-1.48-8.29-1.48-11.06s-3,12.44-3,12.44v2.77l1.48,2.76v1.39s-4.43,30.41-7.39,33.18-4.44,0-4.44,0c1.48-1.39,1.48-5.53,1.48-5.53,0-5.53-13.32-12-13.32-12,0-.42-13.32-.42-13.32,3.73s7.4,29,4.44,30.42c0,0,7.4,2.76,8.88,0l1.91.61s-19.67,24.27-21.15,24.27v7.21l1.48-1.68v2.77L940.9,680v-6.91l20.72-20.74,1.48,1.38,1.48,16.59L946.82,692.4s7.4,12.45,13.32,11.06c0,0-4.44,8.3-4.44,13.83,0,0,1.48,17.16,1.48,20.33,0,0-4.44,6.89-5.92,7.8,0,0,3,14.73,10.36,14.73l3-.84-4.44-8.84s0-23.5,1.48-24.89c0,0,5.92-20.73,7.4-20.73h1.48s-3,22.12-3,29a75.67,75.67,0,0,1-1.48,13.82s-3,2.77-4.44,2.77,8.88,13.82,11.84,13.82c0,0-3-11.06-3-12.44s7.39-42.86,8.87-44.24,7.4-4.15,8.88-6.91S988.25,671.66,985.29,667.52Z"/></g><g id="soucoupe"><polygon class="cls-11" points="889.1 514.97 1061.95 514.97 1070.26 504.79 882.87 504.79 889.1 514.97"/><path class="cls-12" d="M837.3,415.85s0-125.64,134.68-131.29,141.65,134.12,140.38,131.29S837.3,415.85,837.3,415.85Z"/><polygon class="cls-13" points="837.3 407.6 677.47 445.19 677.47 451.34 1272.46 451.34 1272.46 443.82 1112.36 407.6 837.3 407.6"/><polygon class="cls-11" points="1112.47 497.03 841.36 497.03 677.47 456.01 677.47 446.31 1272.46 446.31 1272.46 455.01 1112.47 497.03"/><path class="cls-14" d="M845.12,504.79h263.2a4,4,0,0,0,4.15-3.88h0a4,4,0,0,0-4.15-3.88H846.08a4.46,4.46,0,0,0-4.58,4.18v.11A3.51,3.51,0,0,0,845.12,504.79Z"/><path class="cls-15" d="M909.82,312.21s31.08-18,78.43-9.68C988.25,302.53,948.3,298.38,909.82,312.21Z"/></g></svg>