<svg xmlns="http://www.w3.org/2000/svg" xmlns:xlink="http://www.w3.org/1999/xlink" viewBox="0 0 1920 1080"><defs><style>.cls-1{stroke:#000;stroke-miterlimit:10;fill:url(#linear-gradient);}.cls-2{opacity:0.72;fill:url(#Dégradé_sans_nom_150);}.cls-3{opacity:0.81;fill:url(#Dégradé_sans_nom_199);}.cls-4{fill:url(#linear-gradient-2);}.cls-5{fill:#fff;}.cls-10,.cls-11,.cls-12,.cls-13,.cls-5,.cls-6,.cls-7,.cls-8,.cls-9{opacity:0.63;}.cls-6{fill:url(#Dégradé_sans_nom_99);}.cls-7{fill:url(#Dégradé_sans_nom_99-2);}.cls-8{fill:url(#Dégradé_sans_nom_99-3);}.cls-9{fill:url(#Dégradé_sans_nom_99-4);}.cls-10{fill:url(#Dégradé_sans_nom_99-5);}.cls-11{fill:url(#Dégradé_sans_nom_99-6);}.cls-12{fill:url(#Dégradé_sans_nom_99-7);}.cls-13{fill:url(#Dégradé_sans_nom_99-8);}</style><linearGradient id="linear-gradient" x1="957" x2="957" y2="1056.61" gradientUnits="userSpaceOnUse"><stop offset="0"/><stop offset="0.04" stop-color="#020205"/><stop offset="0.09" stop-color="#080915"/><stop offset="0.14" stop-color="#13132e"/><stop offset="0.2" stop-color="#212252"/><stop offset="0.21" stop-color="#222355"/><stop offset="0.33" stop-color="#2f2e6f"/><stop offset="0.41" stop-color="#343375"/><stop offset="0.49" stop-color="#3d387b"/><stop offset="0.57" stop-color="#3e387d"/><stop offset="0.65" stop-color="#4c3f87"/><stop offset="0.72" stop-color="#4e428a"/><stop offset="0.79" stop-color="#55509a"/><stop offset="0.87" stop-color="#58529e"/><stop offset="0.92" stop-color="#6167b5"/><stop offset="1" stop-color="#6a89d6"/></linearGradient><linearGradient id="Dégradé_sans_nom_150" x1="953.5" y1="737.92" x2="953.5" y2="1056.61" gradientUnits="userSpaceOnUse"><stop offset="0.03" stop-color="#221a55"/><stop offset="0.35" stop-color="#38438f"/><stop offset="0.53" stop-color="#3750a7"/><stop offset="0.72" stop-color="#334694"/><stop offset="1" stop-color="#4d66c9"/></linearGradient><linearGradient id="Dégradé_sans_nom_199" x1="966.5" y1="816" x2="966.5" y2="1085" gradientUnits="userSpaceOnUse"><stop offset="0.23" stop-color="#343093"/><stop offset="0.8" stop-color="#3755ac"/><stop offset="1" stop-color="#4d60c7"/></linearGradient><linearGradient id="linear-gradient-2" x1="940.55" y1="794.09" x2="940.55" y2="1147" gradientUnits="userSpaceOnUse"><stop offset="0" stop-color="#343093"/><stop offset="0.12" stop-color="#28277b"/><stop offset="0.26" stop-color="#1f2168"/><stop offset="0.42" stop-color="#181c5a"/><stop offset="0.62" stop-color="#141952"/><stop offset="1" stop-color="#131850"/></linearGradient><linearGradient id="Dégradé_sans_nom_99" x1="1017.77" y1="423.11" x2="1147.97" y2="423.11" gradientTransform="translate(-35.58 91.35) rotate(-4.9)" gradientUnits="userSpaceOnUse"><stop offset="0" stop-color="#fdf5f4"/><stop offset="0.48" stop-color="#a6a3bd"/><stop offset="0.85" stop-color="#7473a9"/><stop offset="0.97" stop-color="#565495"/></linearGradient><linearGradient id="Dégradé_sans_nom_99-2" x1="213.07" y1="675.24" x2="343.27" y2="675.24" gradientTransform="translate(-66.08 58.74) rotate(-6.46)" xlink:href="#Dégradé_sans_nom_99"/><linearGradient id="Dégradé_sans_nom_99-3" x1="0.94" y1="257.14" x2="131.09" y2="257.14" gradientTransform="translate(-61.95 60.86) rotate(-10.26)" xlink:href="#Dégradé_sans_nom_99"/><linearGradient id="Dégradé_sans_nom_99-4" x1="1559.2" y1="339.9" x2="1689.41" y2="339.9" gradientTransform="translate(-28.13 96.22) rotate(-3.92)" xlink:href="#Dégradé_sans_nom_99"/><linearGradient id="Dégradé_sans_nom_99-5" x1="1797.77" y1="98.53" x2="1928" y2="98.53" gradientTransform="matrix(1, 0, 0, 1, 0, 0)" xlink:href="#Dégradé_sans_nom_99"/><linearGradient id="Dégradé_sans_nom_99-6" x1="499.3" y1="457.6" x2="629.52" y2="457.6" gradientTransform="matrix(1, -0.08, 0.06, 0.8, -23.11, 124.52)" xlink:href="#Dégradé_sans_nom_99"/><linearGradient id="Dégradé_sans_nom_99-7" x1="1498.02" y1="793.72" x2="1628.23" y2="793.72" gradientTransform="matrix(1, -0.08, 0.06, 0.8, -23.11, 124.52)" xlink:href="#Dégradé_sans_nom_99"/><linearGradient id="Dégradé_sans_nom_99-8" x1="514.22" y1="83.08" x2="644.43" y2="83.08" gradientTransform="matrix(1, -0.08, 0.06, 0.8, -23.11, 124.52)" xlink:href="#Dégradé_sans_nom_99"/></defs><g id="fond"><rect class="cls-1" x="-14" width="1942" height="1056.61"/></g><g id="montagnes"><path class="cls-2" d="M1920,737.92s-347.4,135-440.79,130.9-334-115.57-428.77-117c-11.32-.16-111.79-6.88-414.62,155.47,0,0-167,53.65-281.6,17.88S-15.11,835.94-13,813.86v242.75H1920Z"/><path class="cls-3" d="M1928,816s-635.6,173.44-755.26,170.33c-52.23-1.35-302.67-59-454.71-118.09,0,0-114-45.06-274.51-3.11S55,989.31,5,969.17V1085H1928Z"/><path class="cls-4" d="M286,1023.09a551.74,551.74,0,0,1-64.84-12.27c-18.94-5-65.43-22.83-117.32-48.13C26.85,925.16-73.39,794-62,794.09c55.55.61,14.88,166,17,221.56C-42.22,1088.14,15.51,1147,90.15,1147H1808.86c74.63,0,135.14-58.8,135.14-131.34h0c0-90-91-153.38-178.66-124.34-104.3,34.55-224.94,70-274.9,67.88-96.1-4.12-249.59-88.46-403.44-103.11-18.08-1.73-27.06-3.12-38.2-3.76-165.11-9.46-220.27,73.77-408,134.44C640.84,986.77,462.41,1044.44,286,1023.09Z"/></g><g id="lune_étoiles" data-name="lune/étoiles"><path class="cls-5" d="M1278.3,227.81c-28.77,0-52.09-23.1-52.09-51.59a51,51,0,0,1,10.12-30.55,51.47,51.47,0,0,0-25.4,44.3c0,28.5,23.33,51.6,52.09,51.6a52.19,52.19,0,0,0,42-21A52.29,52.29,0,0,1,1278.3,227.81Z"/><ellipse class="cls-5" cx="127.73" cy="90.8" rx="1.39" ry="1.38"/><ellipse class="cls-5" cx="388.87" cy="365.96" rx="1.39" ry="1.38"/><ellipse class="cls-5" cx="193.02" cy="343.95" rx="1.39" ry="1.38"/><ellipse class="cls-5" cx="887.54" cy="173.35" rx="1.39" ry="1.38"/><ellipse class="cls-5" cx="826.42" cy="162.34" rx="1.39" ry="1.38"/><ellipse class="cls-5" cx="897.26" cy="301.3" rx="1.39" ry="1.38"/><ellipse class="cls-5" cx="726.41" cy="247.64" rx="1.39" ry="1.38"/><ellipse class="cls-5" cx="651.4" cy="127.95" rx="1.39" ry="1.38"/><ellipse class="cls-5" cx="573.61" cy="59.16" rx="1.39" ry="1.38"/><ellipse class="cls-5" cx="437.49" cy="92.18" rx="1.39" ry="1.38"/><ellipse class="cls-5" cx="351.37" cy="112.82" rx="1.39" ry="1.38"/><ellipse class="cls-5" cx="181.91" cy="111.44" rx="1.39" ry="1.38"/><ellipse class="cls-5" cx="1059.78" cy="279.29" rx="1.39" ry="1.38"/><ellipse class="cls-5" cx="1320.92" cy="554.45" rx="1.39" ry="1.38"/><ellipse class="cls-5" cx="1125.06" cy="532.43" rx="1.39" ry="1.38"/><ellipse class="cls-5" cx="1819.59" cy="361.83" rx="1.39" ry="1.38"/><ellipse class="cls-5" cx="1758.47" cy="350.83" rx="1.39" ry="1.38"/><ellipse class="cls-5" cx="1829.31" cy="489.78" rx="1.39" ry="1.38"/><ellipse class="cls-5" cx="1658.46" cy="436.13" rx="1.39" ry="1.38"/><ellipse class="cls-5" cx="1583.45" cy="316.43" rx="1.39" ry="1.38"/><ellipse class="cls-5" cx="1505.66" cy="247.64" rx="1.39" ry="1.38"/><ellipse class="cls-5" cx="1369.54" cy="280.66" rx="1.39" ry="1.38"/><ellipse class="cls-5" cx="1283.41" cy="301.3" rx="1.39" ry="1.38"/><ellipse class="cls-5" cx="1113.95" cy="299.92" rx="1.39" ry="1.38"/><ellipse class="cls-5" cx="1026.44" cy="75.67" rx="1.39" ry="1.38"/><ellipse class="cls-5" cx="1287.58" cy="350.83" rx="1.39" ry="1.38"/><ellipse class="cls-5" cx="1091.73" cy="328.82" rx="1.39" ry="1.38"/><ellipse class="cls-5" cx="1786.25" cy="158.22" rx="1.39" ry="1.38"/><ellipse class="cls-5" cx="1725.13" cy="147.21" rx="1.39" ry="1.38"/><ellipse class="cls-5" cx="1795.97" cy="286.17" rx="1.39" ry="1.38"/><ellipse class="cls-5" cx="1625.12" cy="232.51" rx="1.39" ry="1.38"/><ellipse class="cls-5" cx="1550.11" cy="112.82" rx="1.39" ry="1.38"/><ellipse class="cls-5" cx="1472.32" cy="44.03" rx="1.39" ry="1.38"/><ellipse class="cls-5" cx="1336.2" cy="77.04" rx="1.39" ry="1.38"/><ellipse class="cls-5" cx="1250.08" cy="97.68" rx="1.39" ry="1.38"/><ellipse class="cls-5" cx="1080.61" cy="96.31" rx="1.39" ry="1.38"/><ellipse class="cls-5" cx="115.23" cy="261.4" rx="1.39" ry="1.38"/><ellipse class="cls-5" cx="376.37" cy="536.56" rx="1.39" ry="1.38"/><ellipse class="cls-5" cx="180.52" cy="514.55" rx="1.39" ry="1.38"/><ellipse class="cls-5" cx="875.04" cy="343.95" rx="1.39" ry="1.38"/><ellipse class="cls-5" cx="813.92" cy="332.94" rx="1.39" ry="1.38"/><ellipse class="cls-5" cx="884.76" cy="471.9" rx="1.39" ry="1.38"/><ellipse class="cls-5" cx="713.91" cy="418.24" rx="1.39" ry="1.38"/><ellipse class="cls-5" cx="638.9" cy="298.55" rx="1.39" ry="1.38"/><ellipse class="cls-5" cx="561.11" cy="229.76" rx="1.39" ry="1.38"/><ellipse class="cls-5" cx="424.99" cy="262.78" rx="1.39" ry="1.38"/><ellipse class="cls-5" cx="338.87" cy="283.41" rx="1.39" ry="1.38"/><ellipse class="cls-5" cx="169.4" cy="282.04" rx="1.39" ry="1.38"/><ellipse class="cls-5" cx="569.45" cy="397.61" rx="1.39" ry="1.38"/><ellipse class="cls-5" cx="830.59" cy="672.76" rx="1.39" ry="1.38"/><ellipse class="cls-5" cx="634.73" cy="650.75" rx="1.39" ry="1.38"/><ellipse class="cls-5" cx="1329.25" cy="480.15" rx="1.39" ry="1.38"/><ellipse class="cls-5" cx="1268.14" cy="469.15" rx="1.39" ry="1.38"/><ellipse class="cls-5" cx="1338.98" cy="608.1" rx="1.39" ry="1.38"/><ellipse class="cls-5" cx="1168.12" cy="554.45" rx="1.39" ry="1.38"/><ellipse class="cls-5" cx="1093.12" cy="434.75" rx="1.39" ry="1.38"/><ellipse class="cls-5" cx="1015.33" cy="365.96" rx="1.39" ry="1.38"/><ellipse class="cls-5" cx="879.2" cy="398.98" rx="1.39" ry="1.38"/><ellipse class="cls-5" cx="793.08" cy="419.62" rx="1.39" ry="1.38"/><ellipse class="cls-5" cx="623.62" cy="418.24" rx="1.39" ry="1.38"/><ellipse class="cls-5" cx="997.27" cy="488.41" rx="1.39" ry="1.38"/><ellipse class="cls-5" cx="1258.41" cy="763.57" rx="1.39" ry="1.38"/><ellipse class="cls-5" cx="1062.56" cy="741.55" rx="1.39" ry="1.38"/><ellipse class="cls-5" cx="1757.08" cy="570.96" rx="1.39" ry="1.38"/><ellipse class="cls-5" cx="1695.96" cy="559.95" rx="1.39" ry="1.38"/><ellipse class="cls-5" cx="1766.8" cy="698.9" rx="1.39" ry="1.38"/><ellipse class="cls-5" cx="1595.95" cy="645.25" rx="1.39" ry="1.38"/><ellipse class="cls-5" cx="1520.94" cy="525.55" rx="1.39" ry="1.38"/><ellipse class="cls-5" cx="1443.15" cy="456.76" rx="1.39" ry="1.38"/><ellipse class="cls-5" cx="1307.03" cy="489.78" rx="1.39" ry="1.38"/><ellipse class="cls-5" cx="1220.91" cy="510.42" rx="1.39" ry="1.38"/><ellipse class="cls-5" cx="1051.45" cy="509.04" rx="1.39" ry="1.38"/><ellipse class="cls-5" cx="102.73" cy="504.92" rx="1.39" ry="1.38"/><ellipse class="cls-5" cx="363.87" cy="780.08" rx="1.39" ry="1.38"/><ellipse class="cls-5" cx="168.01" cy="758.06" rx="1.39" ry="1.38"/><ellipse class="cls-5" cx="862.54" cy="587.46" rx="1.39" ry="1.38"/><ellipse class="cls-5" cx="801.42" cy="576.46" rx="1.39" ry="1.38"/><ellipse class="cls-5" cx="872.26" cy="715.41" rx="1.39" ry="1.38"/><ellipse class="cls-5" cx="701.41" cy="661.76" rx="1.39" ry="1.38"/><ellipse class="cls-5" cx="626.4" cy="542.06" rx="1.39" ry="1.38"/><ellipse class="cls-5" cx="548.61" cy="473.27" rx="1.39" ry="1.38"/><ellipse class="cls-5" cx="412.49" cy="506.29" rx="1.39" ry="1.38"/><ellipse class="cls-5" cx="326.37" cy="526.93" rx="1.39" ry="1.38"/><ellipse class="cls-5" cx="156.9" cy="525.55" rx="1.39" ry="1.38"/><path class="cls-6" d="M1143.23,402.07s-126.47,27.3-127.67,34.31,29.8-5.29,29.8-5.29Z"/><path class="cls-7" d="M349.55,678.26S223.88,709,222.88,716s29.64-6.09,29.64-6.09Z"/><path class="cls-8" d="M110.55,277.93s-123.35,38.89-123.88,46,29.17-8,29.17-8Z"/><path class="cls-9" d="M1679.7,306.84S1552.78,332,1551.47,339s29.88-4.79,29.88-4.79Z"/><path class="cls-10" d="M1928,85.59S1799.64,102.1,1797.84,109s30.15-2.75,30.15-2.75Z"/><path class="cls-11" d="M632.22,434.27s-127,23-128.36,28.7,29.9-4.5,29.9-4.5Z"/><path class="cls-12" d="M1649.07,628.36s-127,23-128.36,28.69,29.9-4.5,29.9-4.5Z"/><path class="cls-13" d="M624,131.7s-127,23-128.36,28.69,29.9-4.5,29.9-4.5Z"/></g></svg>