<?xml version="1.0" encoding="utf-8"?>
<!-- Generator: Adobe Illustrator 25.0.0, SVG Export Plug-In . SVG Version: 6.00 Build 0)  -->
<svg version="1.1" id="Calque_1" xmlns="http://www.w3.org/2000/svg" xmlns:xlink="http://www.w3.org/1999/xlink" x="0px" y="0px"
	 viewBox="0 0 1366 768" style="enable-background:new 0 0 1366 768;" xml:space="preserve">
<style type="text/css">
	.st0{fill:#FFFFFF;}
</style>
<path class="st0" d="M1035.4,182.2c-41-31.9-77.5,4.6-77.5,4.6l-257.1,265c-4.9,5.1-11.3,7.7-17.8,8c-6.5-0.3-12.9-2.9-17.8-8
	l-257.1-265c0,0-36.5-36.5-77.5-4.6c-33.9,26.4-20.1,58-14.2,68.1c1.1,1.9,2.4,3.7,4,5.3c24.8,25.3,283.5,289.5,320.4,326.4
	c13.8,13.8,28.8,17.8,42.3,17.2c13.5,0.6,28.5-3.4,42.3-17.2c36.9-36.9,295.6-301.1,320.4-326.4c1.6-1.6,2.9-3.3,4-5.3
	C1055.5,240.1,1069.4,208.5,1035.4,182.2z"/>
</svg>
