<svg xmlns="http://www.w3.org/2000/svg" xmlns:xlink="http://www.w3.org/1999/xlink" viewBox="0 0 1920 1080"><defs><style>.cls-1{fill:url(#linear-gradient);}.cls-2{fill:#030303;}.cls-3{fill:#fff;}.cls-4{fill:#897b7d;}.cls-5{fill:#252221;}.cls-6{fill:#878a80;}.cls-7{fill:#06050a;}.cls-14,.cls-19,.cls-30,.cls-31,.cls-32,.cls-33,.cls-34,.cls-35,.cls-48,.cls-49,.cls-50,.cls-53,.cls-8{fill:none;stroke-miterlimit:10;}.cls-8{stroke:#c8c2bc;}.cls-30,.cls-31,.cls-8{stroke-width:0.25px;}.cls-9{fill:#797c79;}.cls-10{fill:#0a0a06;}.cls-11{fill:#fef4e9;}.cls-12{fill:#817c73;}.cls-13{fill:#1d1c1a;}.cls-14{stroke:#9d9d9b;}.cls-14,.cls-19,.cls-32,.cls-33,.cls-48,.cls-50,.cls-53{stroke-width:0.5px;}.cls-15{fill:#fcf4e9;}.cls-16{fill:#010202;}.cls-17{fill:#ecb057;}.cls-18{fill:#110f0f;}.cls-19{stroke:#897b7d;}.cls-20{fill:#897686;}.cls-21{fill:#f7f5ee;}.cls-22{fill:#080808;}.cls-23{fill:#7d8582;}.cls-24{fill:#ea2d21;}.cls-25{fill:#f96a63;}.cls-26{fill:#f0462f;}.cls-27{fill:#eb6f6b;}.cls-28{fill:#e67175;}.cls-29{fill:#540f05;}.cls-30{stroke:#540f05;}.cls-31,.cls-32,.cls-33,.cls-35{stroke:#fff;}.cls-33,.cls-48{opacity:0.63;}.cls-34{stroke:#de5a44;}.cls-35{stroke-width:0.75px;}.cls-36{fill:#d62b11;}.cls-37{fill:#fcac22;}.cls-38{fill:#fcad42;}.cls-39{fill:#f9b13f;}.cls-40{fill:#d8423c;}.cls-41{fill:#282629;}.cls-42{fill:#bb2f24;}.cls-43{fill:#e2bda9;}.cls-44{fill:#504e50;}.cls-45{fill:#db4638;}.cls-46{fill:#011102;}.cls-47{fill:#e0d5d7;}.cls-48{stroke:#e0d5d7;}.cls-49{stroke:#000;}.cls-50{stroke:#fcf4e9;}.cls-51{fill:#877c7c;}.cls-52{fill:#f7f2ea;}.cls-53{stroke:#544a4a;}.cls-54{fill:#e0a641;}</style><linearGradient id="linear-gradient" x1="882.23" y1="1077" x2="882.23" y2="-3" gradientTransform="matrix(-1, 0, 0, 1, 1841, 0)" gradientUnits="userSpaceOnUse"><stop offset="0.3" stop-color="#341214"/><stop offset="0.61" stop-color="#4e4588"/><stop offset="0.8" stop-color="#2f2764"/><stop offset="0.84" stop-color="#1f1a43"/><stop offset="0.88" stop-color="#120f26"/><stop offset="0.92" stop-color="#080711"/><stop offset="0.96" stop-color="#020204"/><stop offset="1"/></linearGradient></defs><g id="fond"><polygon class="cls-1" points="1917.54 -3 0 -3 0 1077 1915.79 1077 1917.54 -3"/></g><g id="sol"><path class="cls-2" d="M-15,691.72S1909,572.09,1932,579.24L1922.76,1097H-15Z"/><path class="cls-3" d="M1224.74,627.49s52.19,220.23,840.26,444v-54.15s-726.61-205.74-793-394.42Z"/><path class="cls-4" d="M1447.87,767.93s-134.24-94.19-142.29-108l16.31,20.66-66.46-17.93s124,125.15,190.66,158l60.1-21.42Z"/><path class="cls-5" d="M-15,958.77l66.33-33.08s1038.72,12.55,1114.09,24.62l67.18,27.38L1868,985l-351.42-59.31s-395-113.59-410.89-108.35-76.72,1.27-76.72,1.27l163.51,48.86s-191-38.42-210-48.86L733,783.5l-26.83-9.94,39.52-55.83L423.9,735.1,236.16,716.68S78.33,716.68-15,730Z"/></g><g id="ailerons"><path class="cls-6" d="M1687.64,316.42s-55.06-15.67-59.68-15.67-161.11-13.21-173-5-4.19,11.77-4.19,11.77l35.15,25.27,20.32,1.61-28.59-31,150.31,4.7,57.65,15.12,5.52-3.37Z"/><path class="cls-7" d="M1687,319.89s-64.86-17-68.1-16.45-151.2-8.38-158.88-3.13,46.26,34.09,46.26,34.09,15.52-16,24.71-15.22,91.37.71,91.37.71,27.2-20.74,48.78,12.9S1687,319.89,1687,319.89Z"/><path class="cls-7" d="M1493.91,332.79s-49.31-24-44.68-32a30.45,30.45,0,0,0,1.54,20L1482.13,345s-19,55.2-25.2,55.14l17,1.54L1500.71,354Z"/><path class="cls-6" d="M1479.2,342.74s-20.73,59.07-22.27,57.41c0,0,7.7-.07,25.2-55.14Z"/><path class="cls-8" d="M1680.35,315.17s-27.22-8.25-31.33-8.93"/><path class="cls-8" d="M1551.69,299.24s-92.06-9.52-97.26,0"/><path class="cls-8" d="M1481.58,323.18s-15.41-4.81-20-12.82"/></g><g id="autre_roue" data-name="autre roue"><polygon class="cls-9" points="1170.78 554.45 1170.78 550.68 1342.91 534.67 1345.99 541.08 1170.78 554.45"/><polygon class="cls-9" points="1172.18 518.93 1172.18 514.9 1293.6 493.01 1298.23 494.61 1172.18 518.93"/><polygon class="cls-9" points="1172.18 483.88 1171.4 479.36 1304.39 488.2 1299.77 491.41 1172.18 483.88"/><polygon class="cls-9" points="1168.5 475.39 1306.93 458.77 1306.93 455.43 1167.26 473.79 1168.5 475.39"/><polyline class="cls-9" points="1300.46 532.26 1301.31 528.26 1295.93 528.26 1170.78 550.68"/><polygon points="1168.8 483.4 1302.22 491.41 1315.17 494.13 1172.18 492.77 1168.8 483.4"/><polygon points="1171.4 479.36 1306.93 470.58 1306.93 458.77 1168.5 475.39 1171.4 479.36"/><polygon points="1172.11 520.44 1306.67 491.41 1312.09 502.09 1170.78 523.45 1172.11 520.44"/><polygon points="1345.99 541.08 1352.19 550.68 1168.5 559.99 1170.78 554.45 1345.99 541.08"/><polygon points="1300.46 532.26 1302.81 537.84 1168.5 550.68 1300.46 532.26"/><polygon points="1322.52 576.5 1163.77 576.5 1162.05 589.25 1329.12 579.53 1322.52 576.5"/><path class="cls-10" d="M1027.92,402.62s119.31,5.48,122.39,15.09c2.07,6.45,58.55,94.17-6.16,232.13l-123.27-4.62Z"/><path class="cls-11" d="M1173.42,491.41s-74-86.52-131-44.86c0,0,0-35.25-4.62-35.25,0,0,87.83,1.6,121.72,25.63C1159.55,436.93,1171.88,469,1173.42,491.41Z"/><path class="cls-12" d="M1159.55,436.93l-9.24-19.22s4.62-9.61-121.73-14.42l12,14.27Z"/><path class="cls-13" d="M1122.57,446.55s18.49,100.93,9.25,133l-12.33-12.82S1127.2,507.43,1122.57,446.55Z"/><path class="cls-13" d="M1107.17,563.51c-.45,4.5-24.66,14.42-26.2,12.81,0,0,18.49-65.69,12.33-88.12l7.7-41.65S1113.33,501,1107.17,563.51Z"/><path class="cls-14" d="M1064,414.5s9.25,89.73,3.08,112.16"/><path class="cls-14" d="M1050.93,418.51s9.24,88.12,6.16,113.75"/><path class="cls-14" d="M1160.89,446.55c-.57,2.4,7.14,98.53-.57,122.56"/><path class="cls-15" d="M1143.37,431.33c1.55,1.6,4.63,19.22,4.63,30.44"/><ellipse class="cls-16" cx="1023.99" cy="523.83" rx="121.28" ry="27.73" transform="matrix(0.03, -1, 1, 0.03, 467.4, 1530.39)"/><path class="cls-17" d="M1005.47,459.37s7.71-44.87,18.49-40.06c0,0,19.06,27.24,16.46,84.92l-2.59,57.67s-6.16,62.49-26.19,59.28c0,0-7.71-4.8-9.25-17.62,0,0,6.16,17.62,9.25,12.82,0,0,24.65-16,23.11-88.12,0,0,1.29-95.55-13.22-101.45C1021.53,426.81,1016.26,424.12,1005.47,459.37Z"/><ellipse class="cls-15" cx="1017.03" cy="523.45" rx="70.49" ry="13.1" transform="translate(449.9 1516.78) rotate(-87.51)"/><path class="cls-4" d="M1027,497.82s.61,33.89.31,35.37c0,0-1.59-29-11-29,0,0-4.75,2.79-6.3,41.45,0,0-3.08-44.66,0-54.27A28.57,28.57,0,0,1,1020.88,477Z"/><path class="cls-18" d="M1010.09,491.41s4.63-32,9.25-30.44,9.24,14.42,7.7,36.85c0,0-4.62-14.42-10.78-12.82S1010.09,491.41,1010.09,491.41Z"/><path class="cls-19" d="M1018.72,483.88s-6.78,69.87,0,93.17"/><path class="cls-4" d="M1029.35,508.23s-7.7,4.81-9.24,11.22c0,0,4.62,13.7,9.24,14.06C1029.35,533.51,1032.44,514.64,1029.35,508.23Z"/><path class="cls-20" d="M1030.46,524s-5,4.3-10.35-4.51c0,0,2.31,12.9,9.24,14.06C1029.35,533.51,1030.79,527.67,1030.46,524Z"/></g><g id="voiture"><path class="cls-21" d="M1461.5,400.15s-86.87,1.54-92,11.15,81.22,0,81.22,0Z"/><path class="cls-2" d="M1289,614.78s27.74-32,21.57-44.86l-6.16,3.2s-67.8-8-70.88-12.82l75.5-80.11s86.29,73.44,86.29,94.4C1395.3,574.59,1376.81,600.36,1289,614.78Z"/><path class="cls-22" d="M1529.35,688.48s-138.68-22.43-149.46-33.65c0,0,13.87-20.83,13.87-41.66,0,0,47.68,35.25,139.4,37.65Z"/><path class="cls-23" d="M1366,563.51s0,41.65-77,51.27l-1.54,48.06h4l2.21-43.26s75.8-9.61,77.19-56.07Z"/><path class="cls-2" d="M1370.79,563.51s6,57.67,1.4,67.29c0,0-41.4,22.43-80.8,32l2.21-43.26S1369.4,608.37,1370.79,563.51Z"/><path class="cls-24" d="M1533.16,650.82s-13.06-80.9,7-143.39c0,0-61.33-81.71-169.34-71.3,0,0-38.25,7,3.14,57.6,0,0-41-42.72-41.39-50.56s-20.45.17-20.45.17-13.86,19.23-7.7,33.65,20,32,52.39,51.27c0,0,43.14,56.07,37,84.91C1393.76,613.17,1456.85,659.64,1533.16,650.82Z"/><path class="cls-25" d="M1312.09,443.34c4.63-8,8.61-8.12,8.61-8.12h16.15s18.39-11.1,33.94-16,207.86-12.73,207.86-12.73c-27.73,28.84-38.52,100.94-38.52,100.94s-59.79-81.71-169.34-71.3c0,0-38.25,7,3.14,57.6,0,0-44.43-46.21-41.58-51.5,0,0-.62-4.13-12-1.51Z"/><path class="cls-26" d="M1450.77,411.3s43.14-43.26,41.6-52.87-9.25-16-9.25-16-3.08-8,1.54-9.62c0,0,20,24,27.74,24,0,0,41.6,9.61,52.39,8,0,0,38.52-16,40.06-19.23l26.19,3.21s-24.65,12.81-46.22,46.46C1584.82,395.28,1564.79,408.1,1450.77,411.3Z"/><polygon class="cls-25" points="1456.93 406.49 1450.77 411.3 1369.1 411.3 1381.43 406.49 1456.93 406.49"/><path class="cls-21" d="M1578.65,406.49l6.17-11.21s-136.77,20.83-227.09,16c0,0-30,6.18-37,23.92h16.15s16.85-12.7,44.58-15.91l195.69-8Z"/><path class="cls-27" d="M1631,348.82s-44.68-8-112.48-4.81L1504,332.79h-19.33s15.83,20.76,24.86,24,38.32,11.25,55.27,8S1591,344,1631,348.82Z"/><path class="cls-21" d="M1641.83,348.82s-120.19,0-124.81-3.21-10.78-11.21-10.78-11.21,98.61,12.18,131,8Z"/><path class="cls-26" d="M1917.63,325.67V300.31S1751.22,187,1681.89,204.62c0,0-24.65,9-53.93,139.39l11.41,1s10.16-49,14.78-49,7.71-14.42,38.52-12.81c0,0,35.44,32,35.44,38.45Z"/><path class="cls-28" d="M1654.15,295.94s29.28,0,33.9,28.84l40.06-3.2s-12.32-24-35.44-38.45C1692.67,283.13,1668,276.72,1654.15,295.94Z"/><polygon class="cls-26" points="1917.63 192.99 1826.72 170.97 1789.49 192.99 1843.67 251.08 1919.17 286.33 1917.63 192.99"/><path class="cls-28" d="M1681.89,204.62S1762,166.5,1917.63,140.7v57.75s-77-27.48-100.15-17.86-17.72,13.57-17.72,13.57,47,10.46,42.37,23.28,4.63,30.44,4.63,30.44l70.87,32.92v19.51S1746.6,187,1681.89,204.62Z"/><path class="cls-2" d="M1917.63,153.85v36.37s-18.49,17.6-21.57,36.83l-1.54,96.13h-32.86s3.59-84.91,5.13-100.94C1867.55,214.27,1917.63,153.85,1917.63,153.85Z"/><path class="cls-2" d="M1886.82,175.78l-21.57,33.65h-13.33l-12.87,19.22L1836,287.93s-12.33-40.05-12.33-43.26c0,0-18.49-1.6-18.49,0s-14.68,28.84-19.66,43.26l4.26-54.47,30.81-41.66h7.71l6.16-8L1831.35,195l-7.71,1.6-10.78,24,21.57-1.6,12.33-17.62,14.8.27Z"/><path class="cls-2" d="M1889.65,145.47l-28,6.24s-11.82,43.3-14.9,44.9C1846.76,196.61,1887.85,156.81,1889.65,145.47Z"/><path class="cls-2" d="M1831.35,159.76s-20,32-21.57,32h-5.93l-31.92,46.71-13,81.47h-23.16l13.67-80.11s37.22-54.48,40.31-54.48h6.16s13.87-20.82,13.87-22.43Z"/><path class="cls-2" d="M1819.05,320s-9.27-44.86-9.27-51.27c0,0-18.29,43.26-18.39,51.27Z"/><path class="cls-29" d="M1768.17,185.39s3.86,2.12,0,4.81C1764.91,192.48,1764.73,189,1768.17,185.39Z"/><path class="cls-29" d="M1722,278.32s3.08,6.17,0,7.89-3.7-3.95-3.7-3.95S1717.33,278.32,1722,278.32Z"/><path class="cls-21" d="M1917.63,140.7V129s-218.79,53.19-235.74,75.62C1681.89,204.62,1902.22,140.53,1917.63,140.7Z"/><path class="cls-30" d="M1772.81,178.56s-53.79,46.89-70,144.62"/><path class="cls-31" d="M1697.3,321.58s10.78-17.63,3.08-25.64-14.77,25.64-14.77,25.64"/><line class="cls-32" x1="1648.7" y1="282.43" x2="1627.96" y2="344.01"/><path class="cls-32" d="M1653.69,294.71s-9.08,15.76-8.55,18.51"/><path class="cls-30" d="M1504,332.79s-7.47,10.41-6.46,14.82-5.16,10.82-5.16,10.82"/><path class="cls-33" d="M1564.67,358.43a59,59,0,0,0-1.91,6.52,36.64,36.64,0,0,0-1,7.9"/><path class="cls-33" d="M1554.77,364s6.73.22,8,.91"/><path class="cls-33" d="M1556.44,358.43s-3.21,8.76-1.67,12"/><path class="cls-33" d="M1551.69,357.63s-2.63,12.77-5.94,12.79-4.85-1.58-1.76-14.39"/><path class="cls-33" d="M1539.36,362.43s-6.16-1.6-7.7-1.6-3.08,1.6-3.08,4.81,9.24,3.2,9.24,3.2a57,57,0,0,1,1.61-7c.8-3,1.61-5.8,1.61-5.8s-6.3-3.21-7.84-1.61-3.08,4.81-1.54,6.41"/><path class="cls-33" d="M1528.58,354s-3.08,11.67-3.08,13.27h-5.61"/><path class="cls-33" d="M1518.17,354s4.24,10.07-3.46,11.67S1513.92,348.72,1518.17,354Z"/><polyline class="cls-32" points="1512.88 353.03 1509.67 352.25 1505.46 351.22"/><path class="cls-33" d="M1505.47,365s2.24-10.07,4.2-12.7"/><path class="cls-34" d="M1311.32,450.55l13.87,3.21s-1.54,33.95,0,37h-13.87"/><path class="cls-35" d="M1437.14,563.51s-21-5.61-24.12-2.41c0,0-13.87-6.41-21.57-6.41l-1.55-19.22-12.32-9.61s-3.08-86.52,33.9-81.72,43.82,51.38,43.48,84.17l-17.29,12Z"/><path class="cls-36" d="M1437.67,540.27l-.53,23.24s-18.73-6.41-24.12-2.41c0,0-17.72-8.81-21.57-6.41l-1.55-19.22-12.32-9.61s-2.31-85.72,33.9-81.72S1453.85,493,1455,528.31Z"/><path class="cls-37" d="M1447.69,517l-17,17.63v16s-14.8-4.82-17.42,0c0,0-10.32-4.8-18-3.2V530.31l-11.22-8V504.23l15,23.22-15-25.76s1.54-14.25,2-15.09l12.33,28.84L1387.59,485s-1.44-11.06,6.21-14.34l9.2,43.18-7.7-46.46s4.62-8,9.24-6.41l4.18,44.75-1-45s7.65-4.6,12.27.21l-3.71,45.22,6.79-42s9.25,3.21,10.79,11.22l-12.33,38.45,13.87-35.25s7.7,9.61,7.7,14.42l-17,27.24,18.49-22.43Z"/><path class="cls-37" d="M1447.69,517s1.54-4.8-3.09-19.22"/><path class="cls-37" d="M1384.08,501.69s0-15.85,2-15.09"/><path class="cls-37" d="M1384.08,522.32s-2-16.49,0-18.09"/><path class="cls-38" d="M1537.05,477s-29.27-19.23-64.71-1.6l-3.08,59.28s13.86,27.23,38.52,35.25c0,0,32.35-24,32.35-25.64S1540.13,480.19,1537.05,477Z"/><path d="M1474.73,477s42.84,0,58,22.39V547.6s-21.55,15.91-25.55,15.91c0,0-32.52-19.23-33.66-28.84C1473.49,534.67,1472.51,477.06,1474.73,477Z"/><path class="cls-38" d="M1530.53,501.69s-5-.94-7.7,0v27.69h-4.42l.15-28.36s-5.38-1.6-7.31,0v30.72s5.81,6.31,9.64,6.22,4.67,0,4.67,0,4.62-2.78,5-4.64S1530.53,501.69,1530.53,501.69Z"/><path class="cls-38" d="M1490.62,507.75l.21,10.9a25,25,0,0,0,6.16,16l7.71.31v15.71h4.62V502.62c0-1.6-1.54-3.2-9.25-3.2S1490.62,507.75,1490.62,507.75Zm4.83,7.69s1.54-11.21,7.7-9.61v22.43S1495.45,526.66,1495.45,515.44Z"/><path class="cls-38" d="M1475.42,501v7.52s4.57-3.76,6.16-2.71,1.54,4.8,1.54,4.8-6.16,3.21-7.7,6.41c0,0-1.54,12.16,0,14.09s3.08,3.54,6.16,3.54h6.09s3.16-1.6,3.16-8h-4.62s-4.63,3.2-6.17,0v-4.81s9.25-3.2,9.25-6.41c0,0,.5-6.91-.35-10.71-1.19-5.31-4.28-5.31-4.28-5.31h-6.16A4.69,4.69,0,0,0,1475.42,501Z"/><path class="cls-22" d="M1379.89,654.83s2-17.72-23.64-16.07l15.94-8,23.11,3.2Z"/><path class="cls-39" d="M1780.5,143.74s-38.52-4.81-77-4.81c0,0-21.57,22.43-26.19,24l70,3.26S1779,150.15,1780.5,143.74Z"/><path class="cls-22" d="M1745.06,166.17l27.74.64s33.89-18.27,33.89-19.87-26.19-3.2-26.19-3.2S1752.71,165.29,1745.06,166.17Z"/><path class="cls-39" d="M1685,138.93s-27.73,0-40.06,6.41c0,0-1.54,12.13,0,13.28s12.33,1.14,12.33,1.14S1680.58,147.2,1685,138.93Z"/><path d="M1703.46,138.93s-14.1-.26-20,0l-26.19,20.83,20.75,3.31S1703.46,142.14,1703.46,138.93Z"/><path class="cls-22" d="M1745.45,176.69s1.23-31,11.21-36l-33.34,15.71s-29.11,34.65-32.19,41.43C1691.13,197.84,1739.67,177.61,1745.45,176.69Z"/><path d="M1288,647l-39-41.81s-26.19-4.8-21.57-49.66c0,0-7.71,16-9.25,25.63,0,0,17,66,25.45,65.84S1288,647,1288,647Z"/></g><g id="rétro"><path class="cls-40" d="M1352.15,363.24l1.55,4.8v30.44l-34,.63s14,4.18,12.47,25c0,0-29.27,25.63-26.19,36.85h-6.37l.21-9.62s23.11-27.23,23.11-30.44-1.54-8-4.62-9.61-21.57,0-21.57,0l-4.63-12.82H1278.2v-37Z"/><polygon class="cls-41" points="1353.7 366.44 1353.7 395.28 1282.82 395.28 1282.82 364.84 1353.7 366.44"/><path class="cls-42" d="M1330.58,414.5s-13.54-11.26-24.12-10a12.06,12.06,0,0,0-2.07.42c-10.79,3.21,12.33-4.81,12.33-4.81S1324.42,401.69,1330.58,414.5Z"/><polygon class="cls-42" points="1281.28 368.04 1284.36 395.28 1278.2 398.48 1278.2 363.73 1281.28 368.04"/><path class="cls-43" d="M1327.5,408.1s-6.16-6.41-7.7-6.41A8.14,8.14,0,0,1,1327.5,408.1Z"/><path class="cls-44" d="M1321.34,395.28s3.85-14,0-17.63l-9.25-3.2c-4.62-1.6-3.08-8-3.08-8h17S1330.58,385.67,1321.34,395.28Z"/><path class="cls-45" d="M1315.18,505.83s-26.2-8-29.28-27.24l-4.62-40v-11.4s2.84-3,18.49-3C1299.77,424.12,1292.06,497.82,1315.18,505.83Z"/><path class="cls-46" d="M1301.31,424.12s-7.71,73.7,13.87,81.71c0,0-10.79-4.81-13.87-14.42,0,0-4.62-9.61-3.32-67.29Z"/><path class="cls-47" d="M1302.09,499.67s-19.27-9.86-19.27-22.68-1.54-49.67-1.54-49.67S1281.3,487.09,1302.09,499.67Z"/><path class="cls-45" d="M1342.91,417.71l-12,6.41s-50.06,0-52.92,3.2,1.77,120.16,1.77,120.16-24.66,0-26.2-6.4L1251,427.32s5.83-9.61,8.82-9.61Z"/><path class="cls-24" d="M1269,542.68l1.54-25.64-7.7-6.41V470.16s-6-7.34-9.14-6.67H1251V430.7s25.67,6.23,25.67,11,3.09,105.74,3.09,105.74S1270.49,547.48,1269,542.68Z"/><path class="cls-47" d="M1251,427.32s-1,35.5,0,36.17,0-37.55,8.22-45.67C1259.2,417.82,1256.12,417.71,1251,427.32Z"/><path class="cls-45" d="M1266.73,563s-19.35-4.28-19.35-9.09l6.16-38.45-1.36,28.84h4.44Z"/><path class="cls-24" d="M1281.28,548v15h-14.55s-13.19-5.88-10.11-18.7C1256.62,544.28,1269,550.16,1281.28,548Z"/><path class="cls-24" d="M1281.28,566.53s-3.08,29,1.54,32.22L1243.2,563S1275.11,568,1281.28,566.53Z"/><path class="cls-45" d="M1282.82,598.75s-43.36-3.72-46.33-17.88v-29.3s6.63,11.25,13.38,12.39"/><polyline class="cls-48" points="1275.11 573.12 1276.65 595.55 1267.41 593.95"/><path class="cls-48" d="M1268.72,585.59s-5.16-2.06-5.16-5.26,3.17-4.35,3.17-4.35A15.5,15.5,0,0,1,1268.72,585.59Z"/><path class="cls-48" d="M1263.56,589.94s5.69,7.32,5.16-4.35"/><polyline class="cls-48" points="1263.56 575.27 1263.32 577.5 1262.02 589.94"/><path class="cls-48" d="M1256.16,587.19s-.31-10.07,2.78-11.67,4.38,2,4.38,2"/><path class="cls-48" d="M1255.41,574.72s2.3,9.72-1.71,12.47-4-6.86-4-6.86S1250.35,567.51,1255.41,574.72Z"/><path class="cls-48" d="M1250.36,572.52l-3.79,13.07s-2.2-11.26-1.08-13.07"/><path class="cls-48" d="M1244.57,571.54s1.34,9.59-1,12.31-2.34-6.78-2.34-6.78S1241.6,564.43,1244.57,571.54Z"/></g><g id="roue_face" data-name="roue face"><path class="cls-7" d="M1687.28,1016.12s37,15,230.35-16.52v-674s-201-14.42-241.08,0S1687.28,1016.12,1687.28,1016.12Z"/><path class="cls-12" d="M1926.88,339.2s-180.28-40.05-248.07-4.8c0,0,118.36,50,172,202.43l73,65.13Z"/><path class="cls-15" d="M1916.09,445.58s-90.36-52.9-120.3-42.79l-56.17-57.23,9.29-11.16h23.68l-3.65,11.21s80.13,9.61,83.21,12.82c0,0,57-10.31,63.94-6.76Z"/><path class="cls-18" d="M1917.63,591.56s-36.21-36.87-40.83-38.47c0,0-40.06-141-69.34-168.23l-37.75-12-68.83,642.28s-12.06,10.63,216.75-15.82Z"/><path class="cls-49" d="M1895.29,577.12s-21.57-216.29-134-257.94"/><path class="cls-49" d="M1881.42,562.71s-40.56-221.1-141.23-243.53"/><ellipse class="cls-7" cx="1688.05" cy="679.66" rx="178.73" ry="345.27"/><ellipse class="cls-4" cx="1652.61" cy="679.66" rx="101.69" ry="202.67"/><path class="cls-17" d="M1752,485.8s-33.9-73.7-74-81.71c0,0-78.64-27.24-126.38,100.14,0,0,58.55-103.16,100.17-88.83,0,0,72.43-3.3,106.33,108.85,0,0,6.16-11.21,10.78-4.8s44.69,100.93,29.28,219.49S1752,974.46,1636.43,950.43c0,0,92.45,11.22,106.32-52.87,0,0-38.52,62.48-92.45,43.26S1556.31,844.69,1544,803l12.32-6.41s-21.57-48.06-20-57.68c0,0,15.41,46.47,21.57,48.07,0,0,37,133,86.29,129.77s104.77-25.63,126.35-190.65c0,0,21.91-211.49-81.49-290,0,0-77.22-51.27-117.28,75.31,0,0-32.36,121.76-23.11,198.66l-9.25-3.2-3.16-14.82v27.67L1527,706.9s-9.25-176.24,30.81-246.73c0,0,72.42-97.74,115.56-75.31C1673.41,384.86,1721.18,397.68,1752,485.8Z"/><path class="cls-18" d="M1606.39,521.85l7.7,6.41s-33.9,49.67-27.73,104.14c0,0,0-48.07,10.78-52.87,0,0-3.08,14.42-1.54,17.62,0,0,15.41-67.29,24.66-65.69l9.24,12.82-3.08,12.82,6.16,1.6s9.25-28.84,15.41-28.84c0,0-17,38.45-15.41,43.26l3.08,1.6,1.54-9.61,9.61,12-1.9,10.42,4.62,1.6s24.65-73.7,41.6-68.89c0,0-40.06,52.87-38.52,72.1l3.08,4.8,9.25-24s-27.74,123.37,3.08,173c0,0-21.57-137.78-3.08-142.59,0,0,49.09,28.61,53.82,29.53,0,0-16.84,15.33-19.92,15.33S1668,627.59,1668,627.59s-20,104.14,26.19,133c0,0-23.11-59.28-13.86-64.08l46.22-44.86s1.54-32,13.87-33.65S1688.05,419.31,1606.39,521.85Z"/><path class="cls-15" d="M1743.52,726.93s-3.08-8-4.62-6.41c0,0-43.14,64.09-63.17,51.27,0,0,10,22,16.8,28.58,1.2,1.17,2.3,1.86,3.23,1.86,6.16,0,32.35-3.2,32.35-3.2S1743.52,751,1743.52,726.93Z"/><path class="cls-15" d="M1683.12,802.23s-42.83-60.88-33.59-97.73c0,0,8.15,62.48,38.74,97.73Z"/><path class="cls-15" d="M1624.88,691.68l7.7,51.18,12.33,6.5c-4.62-6.41-12.33-65.69-12.33-65.69l7.71-9.61s6.16,105.74,38.52,131.37c0,0-18.49,2.28-27,7.55s-20.8,29.3-16.18,34.11c0,0-67.79-25.63-63.17-205.08l9.25,6.41s0,60.88,3.08,62.49,15.41,6.4,15.41,6.4-21.58-128.17,15.4-174.63l4.63,4.8s-23.12,41.66-21.58,92.93l4.63,3.2v19.23l4.62,4.81,1.54,12.81,10.79-11.21Z"/><path class="cls-50" d="M1628,550.69c-3.08,3.2-18.49,48.06-20,92.92"/><path class="cls-51" d="M1744.29,699.06s5.39-29.81,0-56.25l-34.51,28.12Z"/><path class="cls-52" d="M1744.29,642.81s-27.73,1.61-38.52,27.24c0,0,13.87,24.36,38.52,29v-9.89s-26.19-7.9-27.73-15.92c0,0,7.7-22.39,27.73-20Z"/><path class="cls-53" d="M1728.14,647.25s21.4,21,1.44,46.32"/><path class="cls-19" d="M1700.38,518.65s-57,14.42-63.18,139.38"/><path class="cls-19" d="M1668.79,497.77s-29.27,15.27-44.68,55.32"/><polygon class="cls-13" points="1754.31 405.84 1790.52 466.57 1782.45 476.99 1754.31 455.81 1754.31 405.84"/><path class="cls-13" d="M1782,427.32c3.08,4.81,32.45,49.67,32.45,49.67l-16.22-8.44Z"/><polygon class="cls-13" points="1700.38 381.52 1668.25 368.61 1657.13 375.06 1700.38 381.52"/><path class="cls-13" d="M1823.64,531.46s33.9,92.93,33.9,104.14V767.39S1812.86,619.58,1809.78,618s32,25.63,32,25.63l-43.55-83,37.7,42.91Z"/><path class="cls-54" d="M1777.68,843.57s7-245.67-28.2-318.14c0,0-15.2-52.81-61.43-89.88l-19.26-17.73s59.32,3.09,89.37,106.43c0,0,6.93-15.22,10.78-4.8S1838,641.38,1777.68,843.57Z"/></g></svg>