<svg xmlns="http://www.w3.org/2000/svg" xmlns:xlink="http://www.w3.org/1999/xlink" viewBox="0 0 595.28 841.89"><defs><style>.cls-1{fill:url(#Dégradé_sans_nom_9);}.cls-2{opacity:0.88;fill:url(#Dégradé_sans_nom_39);}</style><linearGradient id="Dégradé_sans_nom_9" x1="118.89" y1="352.57" x2="455.35" y2="352.57" gradientUnits="userSpaceOnUse"><stop offset="0" stop-color="#1b0a5b"/><stop offset="1" stop-color="#281830"/></linearGradient><linearGradient id="Dégradé_sans_nom_39" x1="45.88" y1="375.02" x2="542.21" y2="375.02" gradientUnits="userSpaceOnUse"><stop offset="0" stop-color="#42093a"/><stop offset="1" stop-color="#6d3696"/></linearGradient></defs><g id="Calque_2" data-name="Calque 2"><path class="cls-1" d="M249.48,520.13C166.32,502.46,110.68,421.67,119.89,335c6.55-61.62,36.59-136.48,140.87-151.58C387.62,165,433.06,256.54,449,314.44a173.06,173.06,0,0,1-1.49,98c-12.36,39.05-40.19,87.94-102.85,104.23C309.54,525.81,277.67,526.12,249.48,520.13Z"/></g><g id="Calque_4" data-name="Calque 4"><path class="cls-2" d="M118.89,364.58S298,445,455.33,356c0,0,25.43-20.58-3.74-31.92A131.32,131.32,0,0,0,447,307.32s77.66-10.63,93.85,30.09c0,0,34.79,95.27-243.17,106.55,0,0-258.72-7.65-251.61-75.09,0,0-1.81-48.6,76.07-50.58,0,0-2.21,15.08-3.11,27.67C119,346,107.41,353.86,118.89,364.58Z"/></g></svg>