<svg xmlns="http://www.w3.org/2000/svg" xmlns:xlink="http://www.w3.org/1999/xlink" viewBox="0 0 1920 1080"><defs><style>.cls-1{stroke:#000;stroke-miterlimit:10;fill:url(#linear-gradient);}.cls-2{fill:#fff;opacity:0.41;}.cls-3{fill:url(#linear-gradient-2);}.cls-4{fill:url(#Dégradé_sans_nom_39);}.cls-5{fill:url(#Dégradé_sans_nom_38);}.cls-6{fill:url(#Dégradé_sans_nom_114);}.cls-7{fill:url(#Dégradé_sans_nom_37);}.cls-8{fill:#fcf2d5;}</style><linearGradient id="linear-gradient" x1="904.5" y1="-6.59" x2="904.5" y2="1107" gradientTransform="matrix(-1, 0, 0, 1, 1869, 0)" gradientUnits="userSpaceOnUse"><stop offset="0" stop-color="#131850"/><stop offset="0.13" stop-color="#151a52"/><stop offset="0.21" stop-color="#1e225a"/><stop offset="0.27" stop-color="#2c2f67"/><stop offset="0.31" stop-color="#373a71"/><stop offset="0.43" stop-color="#4a497a"/><stop offset="0.58" stop-color="#6b6086"/><stop offset="0.74" stop-color="#857290"/><stop offset="0.9" stop-color="#a6859e"/><stop offset="1" stop-color="#b593a6"/></linearGradient><linearGradient id="linear-gradient-2" x1="923.53" y1="1107" x2="923.53" y2="125.99" gradientTransform="matrix(-1, 0, 0, 1, 1869, 0)" gradientUnits="userSpaceOnUse"><stop offset="0" stop-color="#2f2764"/><stop offset="0.16" stop-color="#332b67"/><stop offset="0.33" stop-color="#3f3970"/><stop offset="0.51" stop-color="#544e80"/><stop offset="0.7" stop-color="#706d95"/><stop offset="0.84" stop-color="#8c8aaa"/><stop offset="1" stop-color="#ab8da9"/></linearGradient><linearGradient id="Dégradé_sans_nom_39" x1="1068.79" y1="268.72" x2="1068.79" y2="490.11" gradientTransform="matrix(-1, 0, 0, 1, 1869, 0)" gradientUnits="userSpaceOnUse"><stop offset="0" stop-color="#7d8fb3"/><stop offset="0.18" stop-color="#8c8aaa"/><stop offset="1" stop-color="#ab8da9"/></linearGradient><linearGradient id="Dégradé_sans_nom_38" x1="1135.15" y1="287.46" x2="1135.15" y2="715.46" gradientTransform="matrix(-1, 0, 0, 1, 1869, 0)" gradientUnits="userSpaceOnUse"><stop offset="0" stop-color="#7d8fb3"/><stop offset="0.21" stop-color="#8c8aaa"/><stop offset="1" stop-color="#ab8da9"/></linearGradient><linearGradient id="Dégradé_sans_nom_114" x1="1073.55" y1="524.2" x2="1073.55" y2="984.71" gradientTransform="matrix(-1, 0, 0, 1, 1869, 0)" gradientUnits="userSpaceOnUse"><stop offset="0" stop-color="#7d8fb3"/><stop offset="1" stop-color="#ab8da9"/></linearGradient><linearGradient id="Dégradé_sans_nom_37" x1="824.48" y1="744.63" x2="824.48" y2="812.24" gradientTransform="matrix(-1, 0, 0, 1, 1869, 0)" gradientUnits="userSpaceOnUse"><stop offset="0" stop-color="#7d8fb3"/><stop offset="0.84" stop-color="#8c8aaa"/><stop offset="1" stop-color="#ab8da9"/></linearGradient></defs><g id="fond"><rect class="cls-1" x="-13" y="-6.59" width="1955" height="1113.59"/></g><g id="étoiles"><ellipse class="cls-2" cx="1693.37" cy="83.66" rx="0.63" ry="0.66"/><ellipse class="cls-2" cx="627.76" cy="32.28" rx="0.63" ry="0.66"/><ellipse class="cls-2" cx="714.87" cy="106.06" rx="0.63" ry="0.66"/><ellipse class="cls-2" cx="828.51" cy="102.1" rx="0.63" ry="0.66"/><ellipse class="cls-2" cx="573.47" cy="57.31" rx="0.63" ry="0.66"/><ellipse class="cls-2" cx="640.38" cy="83.66" rx="0.63" ry="0.66"/><ellipse class="cls-2" cx="770.43" cy="77.07" rx="0.63" ry="0.66"/><ellipse class="cls-2" cx="817.14" cy="57.31" rx="0.63" ry="0.66"/><ellipse class="cls-2" cx="759.06" cy="30.96" rx="0.63" ry="0.66"/><ellipse class="cls-2" cx="380.29" cy="71.8" rx="0.63" ry="0.66"/><ellipse class="cls-2" cx="467.41" cy="145.58" rx="0.63" ry="0.66"/><ellipse class="cls-2" cx="581.04" cy="141.63" rx="0.63" ry="0.66"/><ellipse class="cls-2" cx="368.93" cy="195.65" rx="0.63" ry="0.66"/><ellipse class="cls-2" cx="326" cy="96.83" rx="0.63" ry="0.66"/><ellipse class="cls-2" cx="392.92" cy="123.19" rx="0.63" ry="0.66"/><ellipse class="cls-2" cx="522.96" cy="116.6" rx="0.63" ry="0.66"/><ellipse class="cls-2" cx="569.68" cy="96.83" rx="0.63" ry="0.66"/><ellipse class="cls-2" cx="103.79" cy="55.99" rx="0.63" ry="0.66"/><ellipse class="cls-2" cx="190.91" cy="129.77" rx="0.63" ry="0.66"/><ellipse class="cls-2" cx="304.54" cy="125.82" rx="0.63" ry="0.66"/><ellipse class="cls-2" cx="92.42" cy="179.84" rx="0.63" ry="0.66"/><ellipse class="cls-2" cx="190.91" cy="57.31" rx="0.63" ry="0.66"/><ellipse class="cls-2" cx="116.41" cy="107.37" rx="0.63" ry="0.66"/><ellipse class="cls-2" cx="246.46" cy="100.79" rx="0.63" ry="0.66"/><ellipse class="cls-2" cx="235.1" cy="54.67" rx="0.63" ry="0.66"/><ellipse class="cls-2" cx="594.93" cy="257.57" rx="0.63" ry="0.66"/><ellipse class="cls-2" cx="708.56" cy="253.62" rx="0.63" ry="0.66"/><ellipse class="cls-2" cx="496.45" cy="307.64" rx="0.63" ry="0.66"/><ellipse class="cls-2" cx="594.93" cy="185.11" rx="0.63" ry="0.66"/><ellipse class="cls-2" cx="520.44" cy="235.18" rx="0.63" ry="0.66"/><ellipse class="cls-2" cx="559.58" cy="208.83" rx="0.63" ry="0.66"/><ellipse class="cls-2" cx="697.2" cy="208.83" rx="0.63" ry="0.66"/><ellipse class="cls-2" cx="639.12" cy="182.47" rx="0.63" ry="0.66"/><ellipse class="cls-2" cx="117.68" cy="237.81" rx="0.63" ry="0.66"/><ellipse class="cls-2" cx="204.79" cy="311.59" rx="0.63" ry="0.66"/><ellipse class="cls-2" cx="318.43" cy="307.64" rx="0.63" ry="0.66"/><ellipse class="cls-2" cx="106.31" cy="361.66" rx="0.63" ry="0.66"/><ellipse class="cls-2" cx="204.79" cy="239.13" rx="0.63" ry="0.66"/><ellipse class="cls-2" cx="15.41" cy="262.84" rx="0.63" ry="0.66"/><ellipse class="cls-2" cx="130.3" cy="289.2" rx="0.63" ry="0.66"/><ellipse class="cls-2" cx="169.44" cy="262.84" rx="0.63" ry="0.66"/><ellipse class="cls-2" cx="260.35" cy="282.61" rx="0.63" ry="0.66"/><ellipse class="cls-2" cx="307.06" cy="262.84" rx="0.63" ry="0.66"/><ellipse class="cls-2" cx="950.97" cy="41.5" rx="0.63" ry="0.66"/><ellipse class="cls-2" cx="1038.09" cy="115.28" rx="0.63" ry="0.66"/><ellipse class="cls-2" cx="1151.72" cy="111.33" rx="0.63" ry="0.66"/><ellipse class="cls-2" cx="939.61" cy="165.35" rx="0.63" ry="0.66"/><ellipse class="cls-2" cx="1038.09" cy="42.82" rx="0.63" ry="0.66"/><ellipse class="cls-2" cx="896.68" cy="66.53" rx="0.63" ry="0.66"/><ellipse class="cls-2" cx="963.6" cy="92.88" rx="0.63" ry="0.66"/><ellipse class="cls-2" cx="1002.74" cy="66.53" rx="0.63" ry="0.66"/><ellipse class="cls-2" cx="1093.65" cy="86.29" rx="0.63" ry="0.66"/><ellipse class="cls-2" cx="1140.36" cy="66.53" rx="0.63" ry="0.66"/><ellipse class="cls-2" cx="1082.28" cy="40.18" rx="0.63" ry="0.66"/><ellipse class="cls-2" cx="737.6" cy="336.63" rx="0.63" ry="0.66"/><ellipse class="cls-2" cx="824.72" cy="410.41" rx="0.63" ry="0.66"/><ellipse class="cls-2" cx="938.35" cy="406.46" rx="0.63" ry="0.66"/><ellipse class="cls-2" cx="726.24" cy="460.48" rx="0.63" ry="0.66"/><ellipse class="cls-2" cx="824.72" cy="337.94" rx="0.63" ry="0.66"/><ellipse class="cls-2" cx="683.31" cy="361.66" rx="0.63" ry="0.66"/><ellipse class="cls-2" cx="750.23" cy="388.01" rx="0.63" ry="0.66"/><ellipse class="cls-2" cx="789.37" cy="361.66" rx="0.63" ry="0.66"/><ellipse class="cls-2" cx="880.27" cy="381.42" rx="0.63" ry="0.66"/><ellipse class="cls-2" cx="926.99" cy="361.66" rx="0.63" ry="0.66"/><ellipse class="cls-2" cx="868.91" cy="335.31" rx="0.63" ry="0.66"/><ellipse class="cls-2" cx="394.18" cy="384.06" rx="0.63" ry="0.66"/><ellipse class="cls-2" cx="481.3" cy="457.84" rx="0.63" ry="0.66"/><ellipse class="cls-2" cx="594.93" cy="453.89" rx="0.63" ry="0.66"/><ellipse class="cls-2" cx="382.82" cy="507.91" rx="0.63" ry="0.66"/><ellipse class="cls-2" cx="481.3" cy="385.38" rx="0.63" ry="0.66"/><ellipse class="cls-2" cx="339.89" cy="409.09" rx="0.63" ry="0.66"/><ellipse class="cls-2" cx="536.85" cy="428.85" rx="0.63" ry="0.66"/><ellipse class="cls-2" cx="583.57" cy="409.09" rx="0.63" ry="0.66"/><ellipse class="cls-2" cx="525.49" cy="382.74" rx="0.63" ry="0.66"/><ellipse class="cls-2" cx="481.3" cy="539.53" rx="0.63" ry="0.66"/><ellipse class="cls-2" cx="568.42" cy="613.31" rx="0.63" ry="0.66"/><ellipse class="cls-2" cx="682.05" cy="609.36" rx="0.63" ry="0.66"/><ellipse class="cls-2" cx="469.93" cy="663.38" rx="0.63" ry="0.66"/><ellipse class="cls-2" cx="568.42" cy="540.85" rx="0.63" ry="0.66"/><ellipse class="cls-2" cx="427.01" cy="564.56" rx="0.63" ry="0.66"/><ellipse class="cls-2" cx="493.92" cy="590.91" rx="0.63" ry="0.66"/><ellipse class="cls-2" cx="533.06" cy="564.56" rx="0.63" ry="0.66"/><ellipse class="cls-2" cx="623.97" cy="584.32" rx="0.63" ry="0.66"/><ellipse class="cls-2" cx="670.68" cy="564.56" rx="0.63" ry="0.66"/><ellipse class="cls-2" cx="612.61" cy="538.21" rx="0.63" ry="0.66"/><ellipse class="cls-2" cx="409.33" cy="727.94" rx="0.63" ry="0.66"/><ellipse class="cls-2" cx="397.97" cy="683.14" rx="0.63" ry="0.66"/><ellipse class="cls-2" cx="123.99" cy="503.95" rx="0.63" ry="0.66"/><ellipse class="cls-2" cx="324.74" cy="573.78" rx="0.63" ry="0.66"/><ellipse class="cls-2" cx="112.63" cy="627.8" rx="0.63" ry="0.66"/><ellipse class="cls-2" cx="21.72" cy="528.99" rx="0.63" ry="0.66"/><ellipse class="cls-2" cx="136.61" cy="555.34" rx="0.63" ry="0.66"/><ellipse class="cls-2" cx="175.75" cy="528.99" rx="0.63" ry="0.66"/><ellipse class="cls-2" cx="266.66" cy="548.75" rx="0.63" ry="0.66"/><ellipse class="cls-2" cx="313.38" cy="528.99" rx="0.63" ry="0.66"/><ellipse class="cls-2" cx="255.3" cy="502.64" rx="0.63" ry="0.66"/><ellipse class="cls-2" cx="332.31" cy="884.72" rx="0.63" ry="0.66"/><ellipse class="cls-2" cx="120.2" cy="938.74" rx="0.63" ry="0.66"/><ellipse class="cls-2" cx="29.3" cy="839.93" rx="0.63" ry="0.66"/><ellipse class="cls-2" cx="320.95" cy="839.93" rx="0.63" ry="0.66"/><ellipse class="cls-2" cx="1224.95" cy="40.18" rx="0.63" ry="0.66"/><ellipse class="cls-2" cx="1425.7" cy="110.01" rx="0.63" ry="0.66"/><ellipse class="cls-2" cx="1213.59" cy="164.03" rx="0.63" ry="0.66"/><ellipse class="cls-2" cx="1170.66" cy="65.21" rx="0.63" ry="0.66"/><ellipse class="cls-2" cx="1237.58" cy="91.56" rx="0.63" ry="0.66"/><ellipse class="cls-2" cx="1367.62" cy="84.98" rx="0.63" ry="0.66"/><ellipse class="cls-2" cx="1414.34" cy="65.21" rx="0.63" ry="0.66"/><ellipse class="cls-2" cx="1356.26" cy="38.86" rx="0.63" ry="0.66"/><ellipse class="cls-2" cx="1512.82" cy="146.9" rx="0.63" ry="0.66"/><ellipse class="cls-2" cx="1599.94" cy="220.68" rx="0.63" ry="0.66"/><ellipse class="cls-2" cx="1713.57" cy="216.73" rx="0.63" ry="0.66"/><ellipse class="cls-2" cx="1501.46" cy="270.75" rx="0.63" ry="0.66"/><ellipse class="cls-2" cx="1458.53" cy="171.93" rx="0.63" ry="0.66"/><ellipse class="cls-2" cx="1525.45" cy="198.29" rx="0.63" ry="0.66"/><ellipse class="cls-2" cx="1702.21" cy="171.93" rx="0.63" ry="0.66"/><ellipse class="cls-2" cx="1727.46" cy="69.17" rx="0.63" ry="0.66"/><ellipse class="cls-2" cx="1841.09" cy="65.21" rx="0.63" ry="0.66"/><ellipse class="cls-2" cx="1628.98" cy="119.23" rx="0.63" ry="0.66"/><ellipse class="cls-2" cx="1586.05" cy="20.42" rx="0.63" ry="0.66"/><ellipse class="cls-2" cx="1652.97" cy="46.77" rx="0.63" ry="0.66"/><ellipse class="cls-2" cx="1692.11" cy="20.42" rx="0.63" ry="0.66"/><ellipse class="cls-2" cx="1783.01" cy="40.18" rx="0.63" ry="0.66"/><ellipse class="cls-2" cx="1829.73" cy="20.42" rx="0.63" ry="0.66"/><ellipse class="cls-2" cx="1704.73" cy="336.63" rx="0.63" ry="0.66"/><ellipse class="cls-2" cx="1818.36" cy="332.67" rx="0.63" ry="0.66"/><ellipse class="cls-2" cx="1606.25" cy="386.69" rx="0.63" ry="0.66"/><ellipse class="cls-2" cx="1563.32" cy="287.88" rx="0.63" ry="0.66"/><ellipse class="cls-2" cx="1760.28" cy="307.64" rx="0.63" ry="0.66"/><ellipse class="cls-2" cx="1807" cy="287.88" rx="0.63" ry="0.66"/><ellipse class="cls-2" cx="1748.92" cy="261.53" rx="0.63" ry="0.66"/><ellipse class="cls-2" cx="1339.85" cy="324.77" rx="0.63" ry="0.66"/><ellipse class="cls-2" cx="1426.97" cy="398.55" rx="0.63" ry="0.66"/><ellipse class="cls-2" cx="1540.6" cy="394.6" rx="0.63" ry="0.66"/><ellipse class="cls-2" cx="1328.48" cy="448.62" rx="0.63" ry="0.66"/><ellipse class="cls-2" cx="1285.56" cy="349.8" rx="0.63" ry="0.66"/><ellipse class="cls-2" cx="1352.47" cy="376.15" rx="0.63" ry="0.66"/><ellipse class="cls-2" cx="1482.52" cy="369.57" rx="0.63" ry="0.66"/><ellipse class="cls-2" cx="1529.23" cy="349.8" rx="0.63" ry="0.66"/><ellipse class="cls-2" cx="1471.16" cy="323.45" rx="0.63" ry="0.66"/><ellipse class="cls-2" cx="1227.48" cy="191.7" rx="0.63" ry="0.66"/><ellipse class="cls-2" cx="1314.6" cy="265.48" rx="0.63" ry="0.66"/><ellipse class="cls-2" cx="1428.23" cy="261.53" rx="0.63" ry="0.66"/><ellipse class="cls-2" cx="1216.12" cy="315.55" rx="0.63" ry="0.66"/><ellipse class="cls-2" cx="1314.6" cy="193.01" rx="0.63" ry="0.66"/><ellipse class="cls-2" cx="1173.19" cy="216.73" rx="0.63" ry="0.66"/><ellipse class="cls-2" cx="1240.1" cy="243.08" rx="0.63" ry="0.66"/><ellipse class="cls-2" cx="1279.24" cy="216.73" rx="0.63" ry="0.66"/><ellipse class="cls-2" cx="1358.79" cy="190.38" rx="0.63" ry="0.66"/><ellipse class="cls-2" cx="1733.77" cy="407.77" rx="0.63" ry="0.66"/><ellipse class="cls-2" cx="1722.41" cy="531.62" rx="0.63" ry="0.66"/><ellipse class="cls-2" cx="1679.48" cy="432.81" rx="0.63" ry="0.66"/><ellipse class="cls-2" cx="1746.4" cy="459.16" rx="0.63" ry="0.66"/><ellipse class="cls-2" cx="1450.95" cy="465.75" rx="0.63" ry="0.66"/><ellipse class="cls-2" cx="1538.07" cy="539.53" rx="0.63" ry="0.66"/><ellipse class="cls-2" cx="1651.7" cy="535.57" rx="0.63" ry="0.66"/><ellipse class="cls-2" cx="1439.59" cy="589.59" rx="0.63" ry="0.66"/><ellipse class="cls-2" cx="1396.66" cy="490.78" rx="0.63" ry="0.66"/><ellipse class="cls-2" cx="1463.58" cy="517.13" rx="0.63" ry="0.66"/><ellipse class="cls-2" cx="1502.72" cy="490.78" rx="0.63" ry="0.66"/><ellipse class="cls-2" cx="1593.62" cy="510.54" rx="0.63" ry="0.66"/><ellipse class="cls-2" cx="1640.34" cy="490.78" rx="0.63" ry="0.66"/><ellipse class="cls-2" cx="1722.41" cy="721.35" rx="0.63" ry="0.66"/><ellipse class="cls-2" cx="1746.4" cy="648.88" rx="0.63" ry="0.66"/><ellipse class="cls-2" cx="1785.54" cy="622.53" rx="0.63" ry="0.66"/><ellipse class="cls-2" cx="1732.51" cy="755.6" rx="0.63" ry="0.66"/><ellipse class="cls-2" cx="1919.37" cy="822.8" rx="0.63" ry="0.66"/><ellipse class="cls-2" cx="1721.14" cy="879.45" rx="0.63" ry="0.66"/><ellipse class="cls-2" cx="1678.22" cy="780.64" rx="0.63" ry="0.66"/><ellipse class="cls-2" cx="1745.13" cy="806.99" rx="0.63" ry="0.66"/></g><g id="cervin"><path class="cls-3" d="M1492.31,638.54H1448l-80.1-105.44-43.54-22.54L1076.83,265.87,1068.9,126l-46.32,33.4-47.63-25L935.27,156.9s-127,180-138.95,180l-31.75,23s-154.09,229-166,233.14-25.87,2.77-25.87,2.77S493,738.34,463.89,749.67L176.06,990.86S93.15,1089.82,113,1094s876,0,876,0l340-6,184,19,268-13Z"/><path class="cls-4" d="M764.35,353.58s153.25-72.21,166.26-84.4S669.36,490.11,669.36,490.11Z"/><path class="cls-5" d="M489,715.46s138.67-78.68,142.57-78.68S651.05,651,651.05,651L926.63,501.05S863,521,857.79,514.93,915,417.44,915,417.44l-54.61,42.65L978.71,287.46S627.12,571.18,620.26,559l-19.21,21.21L575.64,583S507.57,690.44,489,715.46Z"/><path class="cls-6" d="M562.63,984.56S895.32,808,996.77,650.11s-74.59-122.53-74.59-122.53-50.73,56.55-61.17,66-111.89,11.78-111.89,11.78-73.39,110.75-82.2,113.1c0,0,155.3-37.7,161.27-40.05S794.55,731,794.55,731s49.48-22,49-12.57S767,810.34,767,810.34s64.15-28.27,64.15-16.49S623.8,904.6,623.8,904.6l-61.17,80.11"/><path class="cls-7" d="M998.09,776.7s76.85-32.07,92.86-32.07c0,0-76.85,39.79-92.86,67.61Z"/></g><g id="montagnes"><path class="cls-8" d="M929.63,423.34a.7.7,0,0,1-.32.19C929,423.53,929.18,423.46,929.63,423.34Z"/><path class="cls-8" d="M1393,970c0-4.06-8.6,6-11.2,6s-62.41-30.47-62.41-30.47l-123.84,61.62,452.54-17.24,18.85-82.35s-134.64-225-140.81-237.55l-46.81-46.37-9.1,13.19s-7.8,32.5-7.8,36.56,16.9,93.42,16.9,93.42c-5.2,0-32.5-103.58-32.5-103.58l13-16.24c-10.4,2-102.72-128-102.72-125.92s-16.91,28.43-16.91,28.43l1.3,14.22,5.21,10.15-3.9,58.9L1335,572.25l-13-8.58s13-26.4,13-30.47-75.41-117.79-75.41-117.79l-20.8-4.06s-1.31-40.62-2.61-48.74-55.91-66.1-55.91-66.1V279.34s-58.51-111.7-61.11-113.73-41.61-46.71-41.61-46.71-5.2,0-7.8-2S1045,58,1045,58c0,2-74.12,75.14-74.12,75.14l46.39,32.23,39.49-34.46-44.27,46.91,13,30.47-18.85-25.19-22.75,11,1.3,30.46,15.6,36.56v16.25l-6.5-16.25-11.7,40.62,54.61,81.24-50.71-44.68s-51.73,80.79-56.89,85.1c3.83-1,30.88-5.9,30.88-5.9l5.2,8.12V412.27s6.59,17.36,14.8,36.4l22.91,35.79-14.08-16.21c4.23,8.89,8.44,16.92,12.07,22.3,0,0-35.7-38.58-35.7-46.71v-2.78L954,427.6,921.5,464.15l27.31-2,22.1,46.71-26-40.62-11.7,26.41s0,26.4,1.3,30.46,67.61,46.71,67.61,46.71c-5.2,0-57.21-32.49-57.21-32.49l-13,16.24-3.91,65,35.11,2,40.31,42.65,27.3-12.18,33.81,44.68,59.81-28.43L1153,716l57.56-24.37,41.26,65L1335,762.7l29.91-14.22,7.8,60.93,36.41,42.65s26,10.15,27.3,10.15,6.5,44.68,6.5,44.68c2.11,0,23,38.69,30.85,53.35-7.78-10.33-28.25-29-28.25-29M1401.3,978,1264,646.94s3.39-34.53,6-26.41,42.91,54.84,42.91,54.84ZM1130.84,437.75s98.82,105.61,117,105.61c0,0-6.5,95.45-9.1,103.58C1238.77,646.94,1180.25,521,1130.84,437.75Zm-128.83,0c5.1,10.16,66.42,52.8,66.42,52.8-14.3,0-42.91-20.3-42.91-20.3l.31,20.3S996.92,427.6,1002,437.75Z"/><polygon class="cls-8" points="1195.54 1007.1 1371.65 1021.68 1466.08 996.79 1648.08 1021.68 1648.08 980.85 1195.54 1007.1"/></g></svg>