<svg xmlns="http://www.w3.org/2000/svg" xmlns:xlink="http://www.w3.org/1999/xlink" viewBox="0 0 1920 1080"><defs><style>.cls-1,.cls-2{stroke-miterlimit:10;}.cls-1{fill:url(#linear-gradient);stroke:url(#Nouvelle_nuance_de_dégradé_1);}.cls-2{stroke:#000;}.cls-3{fill:#341214;}.cls-4{fill:#371211;}</style><linearGradient id="linear-gradient" x1="958.66" y1="-14" x2="958.66" y2="1071.58" gradientUnits="userSpaceOnUse"><stop offset="0" stop-color="#2f2764"/><stop offset="0.19" stop-color="#2f255d"/><stop offset="0.47" stop-color="#31204b"/><stop offset="0.78" stop-color="#32182d"/><stop offset="1" stop-color="#341214"/></linearGradient><linearGradient id="Nouvelle_nuance_de_dégradé_1" x1="-19.5" y1="528.79" x2="1936.82" y2="528.79" gradientUnits="userSpaceOnUse"><stop offset="0" stop-color="#521d1b"/><stop offset="0.08" stop-color="#5a221e"/><stop offset="0.19" stop-color="#672722"/><stop offset="0.28" stop-color="#7a3028"/><stop offset="0.38" stop-color="#80332a"/><stop offset="0.48" stop-color="#8a372c"/><stop offset="0.59" stop-color="#8f3d2d"/><stop offset="0.68" stop-color="#9a3f2d"/><stop offset="0.76" stop-color="#994931"/><stop offset="0.83" stop-color="#a05635"/><stop offset="0.9" stop-color="#aa6538"/><stop offset="0.95" stop-color="#bc833f"/><stop offset="0.99" stop-color="#ce9f48"/></linearGradient></defs><g id="fond"><rect class="cls-1" x="-19" y="-14" width="1955.32" height="1085.58"/></g><g id="sol"><path class="cls-2" d="M-23,1022.58s926.84-314.87,1955.32,0Z"/><polyline class="cls-2" points="-23 1022.58 -23 1079.78 1941.22 1079.78 1932.32 1022.58"/></g><g id="shanks"><path d="M1014.78,314.89s37.21-53,45.8-54.4v-7.6l-12.88-5.29-1.43-14.66h0s-12.88,19.61-14.32,21c-1,1-7.15,1.43-8.58,0s-8.59-10.67-8.59-10.67h-4.3l-1.43-2.87-4.29-1.43v-2.86c0-.93-1.43-1.43-1.43-1.43s-10,2.86-11.46,2.86l-5.72-16.07s-5.73-5.4-7.16-5.4c0,0,0,8.59,1.43,10s-51.53-44.38-53-74.44c0,0,10.78,1.43,11.83,0,0,0,19.66-54.41,71.19-73,0,0,70.14-11.45,87.32,55.84l1.43,4.29s64.42-44.38,81.59-44.38c0,0-17.17,28.63-17.17,32.93v22.9h32.92s42.94,14.32,61.55,28.64,60.12,60.12,65.84,73,54.4,103.07,54.4,111.66,27.19,68.72,41.51,128.85,18.61,127.41,18.61,127.41,4.29,53,2.86,58.7l-16.8,20.75a40.39,40.39,0,0,0-8.44,18.14c-1.51,8.35-5.54,20-16.27,22.66,0,0-45.81,4.3-60.12,8.59s-42.94,25.77-42.94,25.77-10-114.53-14.32-117.39-37.21,0-37.21,0,14.31,32.93,17.17,34.36,1.43,20,1.43,20-10,15.75-10,20,21.48,61.55,25.77,64.42,50.1,93.05,50.1,95.91-1.43,14.32-2.86,15.75l-196.11-10s-14.31-5.73-12.88-8.59,40.08-12.88,48.67-11.45c0,0,2.86-7.16,5.72-7.16s24.34,1.43,24.34,1.43v-4.29h7.15V858.9s10-5.73,14.32-5.73c0,0,8.59-17.18,7.16-22.9s-27.2-60.13-31.5-63c0,0-30-1.44-38.64-10s-31.49-31.49-31.49-34.35,1.43-28.64-1.44-35.79-28.62-38.66-28.62-43,5.72-18.61,4.29-24.34-17.18-41.52-14.31-45.81,47.23-57.27,53-57.27c0,0-25.77-183.24-35.79-187.54l-47.23,38.66,2.86,4.29s-22.9,22.91-32.92,21.48c0,0-55.83,2.86-58.69,0s-14.32-17.18-11.45-22.91c0,0-70.14-40.08-70.14-41.52S877.36,345,871.64,345,770,282,770,282l-12.89,5.73s1.43-7.16,4.3-10,11.45-21.48,47.23-18.61l164.62,67.28s10-18.61,11.45-21.47S1014.78,314.89,1014.78,314.89Z"/></g><g id="cheveux"><path class="cls-3" d="M1125,155.8s-21.47,1.4-25.77-18.23c-1.2-5.49-15.74-44.89-32.92-50.5s-38.65-14-53-11.22-51.53,19.64-73,68.73l-17.17,7s5.72,40.68,57.25,71.53c0,0-10-18.23-8.58-23.84,0,0,31.49,17.78,35.78,16.61,0,0-5.73-5.39-7.16-11,0,0,17.18,9.82,20,8.41,0,0-11.45-7.5-12.88-11.46,0,0,17.18,7.26,21.47,5.85,0,0-17.18-8.41-15.74-9.81,0,0,24.33,7,25.76,5.61,0,0-12.88-5.61-12.88-7,0,0,11.45-1.4,14.31,0,0,0,2.87-30.85-1.43-33.66,0,0,14.32-4.21,18.61,0,0,0,10,16.83,7.16,21,0,0,15.74,11.22,18.61,11.22,0,0-1.44-7,1.43-8.41,0,0,14.31-1.41,17.17-2.81,0,0-11.45-4.21-11.45-7,0,0,21.47-1.4,25.77-4.21,0,0-5.73,0-7.16-1.4,0,0,10-3.71,11.45-5.36,0,0-4.29,1.15-5.72-.25Z"/></g><g id="luffy"><path class="cls-2" d="M703.44,519.76c-.44-1.31-.6-15.86-.27-24.73a11.76,11.76,0,0,1,5.76-9.66c7.57-4.52,20.28-13,20.28-18.9,0-2.81,1.43-35.07,1.43-35.07S717.76,418.78,717.76,416l-2.86-1.4,1.43-9.82s-5.73,2.81-7.16,4.21-1.43-9.82,0-9.82c0,0-5.57,1.23-6.36,2.72s2.07-11.13,4.93-12.53c0,0-7.16,1.4-10,2.8,0,0-1.43-5.61,4.29-12.62,0,0-4.69-4.83-5.92-3.82,0,0,5.92-11.61,8.79-11.61,0,0-5.73-2.81-7.16-1.4,0,0,1.43-4.21,10-8.42,0,0-51.53-47.69-50.1-51.89,0,0,38.65,0,64.41,12.62,0,0,37.22-40.67,53-40.67s90.17,49.09,90.17,49.09,12.89,49.09-18.6,79.94c0,0,38.64,35.07,40.08,40.68,0,0-65.85-16.83-68.71-22.45a45.93,45.93,0,0,0-1.43,9.82c0,2.81,5.72,5.61,5.72,5.61s-14.31,19.64-24.33,19.64-21.47,0-37.22-11.22v19.63s30.06,7,55.83,102.39c0,0,8.58,57.51,1.43,78.54,0,0-4.3,25.25-7.16,29.46,0,0-2.86,98.73-6.44,104.06,0,0-3.58,5.34-29.34,16.56v60.31s53,16.83,60.11,26.65c0,0-85.73,15.38-108.58,10.28a4,4,0,0,1-2.84-5.57c2.11-4.84,11.23-14.44,11.23-17.34,0-4.2-10-72.93-7.16-79.94,0,0-15.75,0-15.75-2.81,0,0,8.59-26.65,11.45-25.24,0,0,0-50.49-1.43-61.72,0,0-2.86-36.46,2.87-37.86,0,0-1.44-11.22-4.3-14H714.9l1.43-12.62-7.16-8.42c0-1.4-7.16-110.74-5.73-112.2"/></g><g id="bandeau"><path class="cls-4" d="M722.05,313.59l7.16-8.42s115.27,90.34,124.91,89.35c0,0-3.5,12.52-5.51,10.67S724.92,320.6,722.05,313.59Z"/></g></svg>