<svg xmlns="http://www.w3.org/2000/svg" xmlns:xlink="http://www.w3.org/1999/xlink" viewBox="0 0 1920 1080"><defs><style>.cls-1,.cls-15,.cls-2,.cls-6,.cls-7,.cls-8{stroke-miterlimit:10;}.cls-1,.cls-6,.cls-7,.cls-8{stroke-width:8px;}.cls-1{fill:url(#linear-gradient);stroke:url(#Nouvelle_nuance_de_dégradé_1_2);}.cls-2{fill:url(#Dégradé_sans_nom_105);stroke:url(#Dégradé_sans_nom_105-2);}.cls-3{fill:url(#Dégradé_sans_nom_105-3);}.cls-4{fill:url(#Nouvelle_nuance_de_dégradé_1_2-2);}.cls-5{fill:url(#Nouvelle_nuance_de_dégradé_1_2-3);}.cls-6,.cls-7,.cls-8{fill:#442d73;}.cls-6{stroke:url(#Nouvelle_nuance_de_dégradé_1_2-4);}.cls-7{stroke:url(#Nouvelle_nuance_de_dégradé_1_2-5);}.cls-8{stroke:url(#Nouvelle_nuance_de_dégradé_1_2-6);}.cls-9{fill:url(#Nouvelle_nuance_de_dégradé_1_2-7);}.cls-10{fill:url(#Nouvelle_nuance_de_dégradé_1_2-8);}.cls-11{fill:url(#Nouvelle_nuance_de_dégradé_1_2-9);}.cls-12{fill:url(#Nouvelle_nuance_de_dégradé_1_2-10);}.cls-13{fill:url(#Nouvelle_nuance_de_dégradé_1_2-11);}.cls-14{fill:url(#Nouvelle_nuance_de_dégradé_1_2-12);}.cls-15{opacity:0.79;fill:url(#Nouvelle_nuance_de_dégradé_1);stroke:url(#Dégradé_sans_nom_30);}</style><linearGradient id="linear-gradient" x1="959.95" y1="-19" x2="959.95" y2="1099" gradientUnits="userSpaceOnUse"><stop offset="0.02" stop-color="#150d2a"/><stop offset="0.15" stop-color="#18102f"/><stop offset="0.31" stop-color="#20183d"/><stop offset="0.43" stop-color="#29214e"/><stop offset="0.61" stop-color="#1c1338"/><stop offset="0.71" stop-color="#191533"/><stop offset="0.88" stop-color="#0e0f12"/><stop offset="0.89" stop-color="#0c0d10"/><stop offset="0.94" stop-color="#040405"/><stop offset="1" stop-color="#010101"/></linearGradient><linearGradient id="Nouvelle_nuance_de_dégradé_1_2" x1="959.95" y1="-23" x2="959.95" y2="1103" gradientUnits="userSpaceOnUse"><stop offset="0" stop-color="#39246b"/><stop offset="0.14" stop-color="#3a2770"/><stop offset="0.32" stop-color="#462e73"/><stop offset="0.49" stop-color="#482e73"/><stop offset="0.63" stop-color="#503475"/><stop offset="0.83" stop-color="#5d408c"/><stop offset="1" stop-color="#603c79"/></linearGradient><linearGradient id="Dégradé_sans_nom_105" x1="1306.49" y1="238.62" x2="1430.7" y2="238.62" gradientUnits="userSpaceOnUse"><stop offset="0" stop-color="#f480a2"/><stop offset="0.32" stop-color="#f591a9"/><stop offset="0.63" stop-color="#f8b7b9"/><stop offset="1" stop-color="#f7d0c4"/></linearGradient><linearGradient id="Dégradé_sans_nom_105-2" x1="1305.99" y1="238.62" x2="1431.2" y2="238.62" xlink:href="#Dégradé_sans_nom_105"/><linearGradient id="Dégradé_sans_nom_105-3" x1="1562.04" y1="168.74" x2="1562.04" y2="308.5" xlink:href="#Dégradé_sans_nom_105"/><linearGradient id="Nouvelle_nuance_de_dégradé_1_2-2" x1="1280.02" y1="237.55" x2="1459.21" y2="237.55" xlink:href="#Nouvelle_nuance_de_dégradé_1_2"/><linearGradient id="Nouvelle_nuance_de_dégradé_1_2-3" x1="1563.06" y1="142.94" x2="1563.06" y2="332.15" xlink:href="#Nouvelle_nuance_de_dégradé_1_2"/><linearGradient id="Nouvelle_nuance_de_dégradé_1_2-4" x1="1347.09" y1="643.01" x2="1347.09" y2="1178.77" xlink:href="#Nouvelle_nuance_de_dégradé_1_2"/><linearGradient id="Nouvelle_nuance_de_dégradé_1_2-5" x1="1469.58" y1="654.87" x2="1469.58" y2="1178.04" xlink:href="#Nouvelle_nuance_de_dégradé_1_2"/><linearGradient id="Nouvelle_nuance_de_dégradé_1_2-6" x1="1599.13" y1="643.05" x2="1599.13" y2="1178.73" xlink:href="#Nouvelle_nuance_de_dégradé_1_2"/><linearGradient id="Nouvelle_nuance_de_dégradé_1_2-7" x1="1294.52" y1="403.1" x2="1294.52" y2="515.79" xlink:href="#Nouvelle_nuance_de_dégradé_1_2"/><linearGradient id="Nouvelle_nuance_de_dégradé_1_2-8" x1="1293.43" y1="392.18" x2="1209.04" y2="538.35" xlink:href="#Nouvelle_nuance_de_dégradé_1_2"/><linearGradient id="Nouvelle_nuance_de_dégradé_1_2-9" x1="1419.59" y1="606.24" x2="1529.88" y2="606.24" xlink:href="#Nouvelle_nuance_de_dégradé_1_2"/><linearGradient id="Nouvelle_nuance_de_dégradé_1_2-10" x1="1438" y1="603.1" x2="1510.59" y2="530.51" xlink:href="#Nouvelle_nuance_de_dégradé_1_2"/><linearGradient id="Nouvelle_nuance_de_dégradé_1_2-11" x1="1381.65" y1="648.54" x2="1564.58" y2="648.54" xlink:href="#Nouvelle_nuance_de_dégradé_1_2"/><linearGradient id="Nouvelle_nuance_de_dégradé_1_2-12" x1="1320.67" y1="460.14" x2="1613.36" y2="460.14" xlink:href="#Nouvelle_nuance_de_dégradé_1_2"/><linearGradient id="Nouvelle_nuance_de_dégradé_1" x1="-150" y1="573.18" x2="1238.28" y2="573.18" gradientUnits="userSpaceOnUse"><stop offset="0" stop-color="#3e286d"/><stop offset="0.14" stop-color="#472d70"/><stop offset="0.32" stop-color="#533373"/><stop offset="0.49" stop-color="#613c77"/><stop offset="0.63" stop-color="#75477c"/><stop offset="0.83" stop-color="#804d7f"/><stop offset="0.91" stop-color="#a25e89"/><stop offset="1" stop-color="#cc7493"/></linearGradient><linearGradient id="Dégradé_sans_nom_30" x1="-150.51" y1="573.96" x2="1238.44" y2="573.96" gradientUnits="userSpaceOnUse"><stop offset="0" stop-color="#3e286d"/><stop offset="0.14" stop-color="#472d70"/><stop offset="0.32" stop-color="#533373"/><stop offset="0.49" stop-color="#613c77"/><stop offset="0.63" stop-color="#75477c"/><stop offset="0.83" stop-color="#805c7f"/><stop offset="0.91" stop-color="#a25e89"/><stop offset="1" stop-color="#cc7493"/></linearGradient></defs><g id="Fond"><rect class="cls-1" x="-28.11" y="-19" width="1976.11" height="1118"/></g><g id="roues"><ellipse class="cls-2" cx="1368.6" cy="238.62" rx="62.11" ry="69.88"/><ellipse class="cls-3" cx="1562.04" cy="238.62" rx="62.11" ry="69.88"/><path class="cls-4" d="M1369.61,142.94c-49.48,0-89.59,42.36-89.59,94.61s40.11,94.6,89.59,94.6,89.6-42.36,89.6-94.6S1419.1,142.94,1369.61,142.94ZM1393,166.59c10.68,0,19.35,9.15,19.35,20.43s-8.67,20.43-19.35,20.43-19.34-9.15-19.34-20.43S1382.35,166.59,1393,166.59Zm-50.91,0c10.69,0,19.35,9.15,19.35,20.43s-8.66,20.43-19.35,20.43-19.34-9.15-19.34-20.43S1331.44,166.59,1342.12,166.59Zm-47.85,69.88c0-11.28,8.66-20.42,19.34-20.42s19.35,9.14,19.35,20.42-8.66,20.43-19.35,20.43S1294.27,247.75,1294.27,236.47Zm47.85,74.18c-10.68,0-19.34-9.15-19.34-20.43s8.66-20.42,19.34-20.42,19.35,9.14,19.35,20.42S1352.81,310.65,1342.12,310.65Zm26.48-62.35a9.69,9.69,0,1,1,9.16-9.68A9.44,9.44,0,0,1,1368.6,248.3ZM1393,310.65c-10.68,0-19.34-9.15-19.34-20.43s8.66-20.42,19.34-20.42,19.35,9.14,19.35,20.42S1403.71,310.65,1393,310.65Zm30.55-53.75c-10.69,0-19.35-9.15-19.35-20.43s8.66-20.42,19.35-20.42,19.34,9.14,19.34,20.42S1434.26,256.9,1423.58,256.9Z"/><path class="cls-5" d="M1563.06,142.94c-49.48,0-89.6,42.36-89.6,94.61s40.12,94.6,89.6,94.6,89.6-42.36,89.6-94.6S1612.55,142.94,1563.06,142.94Zm27.49,23.65c10.69,0,19.35,9.15,19.35,20.43s-8.66,20.43-19.35,20.43-19.34-9.15-19.34-20.43S1579.87,166.59,1590.55,166.59Zm-55,0c10.69,0,19.35,9.15,19.35,20.43s-8.66,20.43-19.35,20.43-19.34-9.15-19.34-20.43S1524.89,166.59,1535.57,166.59Zm-47.85,69.88c0-11.28,8.66-20.42,19.34-20.42s19.35,9.14,19.35,20.42-8.66,20.43-19.35,20.43S1487.72,247.75,1487.72,236.47Zm47.85,76.33c-10.68,0-19.34-9.15-19.34-20.43s8.66-20.42,19.34-20.42,19.35,9.14,19.35,20.42S1546.26,312.8,1535.57,312.8ZM1562,248.3a9.69,9.69,0,1,1,9.17-9.68A9.43,9.43,0,0,1,1562,248.3Zm28.51,64.5c-10.68,0-19.34-9.15-19.34-20.43s8.66-20.42,19.34-20.42,19.35,9.14,19.35,20.42S1601.24,312.8,1590.55,312.8Zm28.51-55.9c-10.68,0-19.34-9.15-19.34-20.43s8.66-20.42,19.34-20.42,19.35,9.14,19.35,20.42S1629.74,256.9,1619.06,256.9Z"/></g><g id="rectangle"><line class="cls-6" x1="1399.26" y1="643.78" x2="1294.92" y2="1178"/><line class="cls-7" x1="1471.91" y1="654.91" x2="1467.24" y2="1178"/><line class="cls-8" x1="1549.67" y1="643.78" x2="1648.59" y2="1178"/><rect class="cls-9" x="1265.66" y="403.1" width="57.71" height="112.69"/><path class="cls-10" d="M1237.6,551.84V368.7a5,5,0,0,1,7.94-4.12l46,34.69a5.18,5.18,0,0,1,2,4.13V512.14a5.15,5.15,0,0,1-1.78,3.92l-46,39.7A5,5,0,0,1,1237.6,551.84Z"/><ellipse class="cls-11" cx="1474.73" cy="606.24" rx="55.14" ry="48.71"/><rect class="cls-12" x="1416.55" y="551.96" width="115.5" height="29.69"/><polygon class="cls-13" points="1394.59 624.08 1550.9 624.08 1564.58 672.99 1381.65 672.99 1394.59 624.08"/><rect class="cls-14" x="1320.67" y="358.58" width="292.7" height="203.12"/></g><g id="lumière"><polyline class="cls-15" points="1238.28 552.54 -66.15 1008.97 -128.67 1155.76 -150 -9.39 -66.15 30.95 1238.28 369.4"/></g></svg>